<?xml version="1.0" encoding="iso-8859-1"?>
<!-- Generator: Adobe Illustrator 19.0.0, SVG Export Plug-In . SVG Version: 6.00 Build 0)  -->
<svg version="1.1" id="Layer_1" xmlns="http://www.w3.org/2000/svg" xmlns:xlink="http://www.w3.org/1999/xlink" x="0px" y="0px"
	 viewBox="0 0 512 512" style="enable-background:new 0 0 512 512;" xml:space="preserve">
<g transform="translate(1 1)">
	<g>
		<g>
			<path d="M152.6,366.123v17.067c0,9.387,7.68,17.067,17.067,17.067H203.8c9.387,0,17.067-7.68,17.067-17.067v-17.067
				c5.12,0,8.533-3.413,8.533-8.533c0-5.12-3.413-8.533-8.533-8.533h-8.533h-51.2H152.6c-5.12,0-8.533,3.413-8.533,8.533
				C144.067,362.71,147.48,366.123,152.6,366.123z M203.8,366.123v17.067h-34.133v-17.067H203.8z"/>
			<path d="M357.4,349.056h-8.533h-51.2h-8.533c-5.12,0-8.533,3.413-8.533,8.533c0,5.12,3.413,8.533,8.533,8.533v17.067
				c0,9.387,7.68,17.067,17.067,17.067h34.133c9.387,0,17.067-7.68,17.067-17.067v-17.067c5.12,0,8.533-3.413,8.533-8.533
				C365.933,352.47,362.52,349.056,357.4,349.056z M340.333,383.19H306.2v-17.067h34.133V383.19z"/>
			<path d="M471.747,151.936c-8.533-52.053-38.4-96.427-83.627-123.733l-16.696-10.336c-0.216-0.146-0.439-0.286-0.672-0.416
				L370.2,17.11c-1.576-1.182-3.514-1.446-5.398-1.061c-0.475,0.024-0.952,0.088-1.429,0.208l-32.427,8.533
				C281.453,36.736,229.4,36.736,180.76,25.643l-31.008-7.752c-1.284-0.984-2.62-1.659-4.11-1.819
				c-1.83-0.418-3.835-0.167-5.842,1.038l-17.92,11.093C76.653,55.51,46.787,99.883,38.253,151.936L-1,398.55
				c0,2.56,0,5.12,1.707,6.827c1.026,1.539,2.363,2.453,3.82,2.943l-0.407,1.323c-1.707,8.533,0,16.213,5.12,23.04
				s12.8,10.24,21.333,10.24H52.76c12.8,0,23.04-8.533,26.453-20.48l3.413-13.653h1.707c4.267,0,7.68-3.413,8.533-6.827
				l17.067-107.52v174.08c0,4.267,3.413,7.68,6.827,8.533l3.413,0.853c43.52,11.093,89.6,16.213,134.827,16.213
				c45.227,0,91.307-5.973,134.827-17.067h3.413c4.267-0.853,6.827-4.267,6.827-8.533v-174.08l17.067,107.52
				c0.853,3.413,4.267,6.827,8.533,6.827h1.911l4.062,14.507c2.56,11.947,12.8,19.627,24.747,19.627h23.893
				c8.533,0,15.36-3.413,21.333-10.24c4.267-5.973,5.973-14.507,4.267-22.187l-0.565-2.117c1.52-0.476,2.914-1.408,3.978-3.003
				C511,403.67,511,401.11,511,398.55L471.747,151.936z M349.72,96.47l5.973,18.773l-70.827,43.52l78.507-115.2l10.24,29.867
				l-20.48,13.653C349.72,88.79,348.867,93.056,349.72,96.47z M157.72,86.23l-20.48-13.653l9.372-28.969l11.231,16.415l3.502,5.139
				l63.165,93.219l-70.203-43.137l6.827-19.627C161.987,92.203,161.133,87.936,157.72,86.23z M335.213,41.856l11.008-3.387
				l-90.885,132.602L164.792,38.736l11.701,3.12C228.547,53.803,283.16,53.803,335.213,41.856z M62.147,418.176
				c-0.853,4.267-5.12,7.68-9.387,7.68H30.573c-2.56,0-5.973-1.707-7.68-3.413c-1.707-2.56-2.56-5.973-1.707-8.533l1.707-5.12
				h41.813L62.147,418.176z M119.32,178.39c-4.267-0.853-8.533,2.56-9.387,6.827L77.507,391.723H75.8H17.773L55.32,154.496
				c6.766-45.672,33.659-86.305,74.016-111.116L119.32,73.43c-0.853,3.413,0,7.68,3.413,9.387l20.48,13.653l-6.827,19.627
				c-1.707,4.267,0,8.533,3.413,10.24l106.667,65.641v285.009c-40.244-0.631-80.413-5.726-119.467-15.29V186.923
				C127,182.656,123.587,178.39,119.32,178.39z M400.067,185.216c-0.853-4.267-5.12-6.827-9.387-6.827s-7.68,4.267-7.68,8.533
				v274.773c-39.053,9.564-79.223,14.659-119.467,15.29V192.502l107.52-66.166c3.413-2.56,4.267-6.827,3.413-10.24L367.64,96.47
				l20.48-13.653c3.413-1.707,4.267-5.973,3.413-9.387l-9.793-29.378c39.757,24.869,66.249,65.181,73.793,110.445l37.412,236.373
				H434.2c-0.327,0-0.653,0.029-0.978,0.081L400.067,185.216z M487.107,422.443c-1.707,2.56-4.267,3.413-6.827,3.413h-23.893
				c-4.267,0-7.68-2.56-8.533-6.827l-2.56-10.24h41.813l1.707,5.973C489.667,417.323,488.813,419.883,487.107,422.443z"/>
			<path d="M229.4,255.19c5.12,0,8.533-3.413,8.533-8.533s-3.413-8.533-8.533-8.533s-8.533,3.413-8.533,8.533
				S224.28,255.19,229.4,255.19z"/>
			<path d="M280.6,255.19c5.12,0,8.533-3.413,8.533-8.533s-3.413-8.533-8.533-8.533s-8.533,3.413-8.533,8.533
				S275.48,255.19,280.6,255.19z"/>
			<path d="M229.4,221.056c5.12,0,8.533-3.413,8.533-8.533s-3.413-8.533-8.533-8.533s-8.533,3.413-8.533,8.533
				S224.28,221.056,229.4,221.056z"/>
			<path d="M280.6,221.056c5.12,0,8.533-3.413,8.533-8.533s-3.413-8.533-8.533-8.533s-8.533,3.413-8.533,8.533
				S275.48,221.056,280.6,221.056z"/>
			<path d="M229.4,323.456c5.12,0,8.533-3.413,8.533-8.533s-3.413-8.533-8.533-8.533s-8.533,3.413-8.533,8.533
				S224.28,323.456,229.4,323.456z"/>
			<path d="M289.133,314.923c0-5.12-3.413-8.533-8.533-8.533s-8.533,3.413-8.533,8.533s3.413,8.533,8.533,8.533
				S289.133,320.043,289.133,314.923z"/>
			<path d="M229.4,289.323c5.12,0,8.533-3.413,8.533-8.533s-3.413-8.533-8.533-8.533s-8.533,3.413-8.533,8.533
				S224.28,289.323,229.4,289.323z"/>
			<path d="M280.6,289.323c5.12,0,8.533-3.413,8.533-8.533s-3.413-8.533-8.533-8.533s-8.533,3.413-8.533,8.533
				S275.48,289.323,280.6,289.323z"/>
		</g>
	</g>
</g>
<g>
</g>
<g>
</g>
<g>
</g>
<g>
</g>
<g>
</g>
<g>
</g>
<g>
</g>
<g>
</g>
<g>
</g>
<g>
</g>
<g>
</g>
<g>
</g>
<g>
</g>
<g>
</g>
<g>
</g>
</svg>
