<?xml version="1.0" encoding="iso-8859-1"?>
<!-- Generator: Adobe Illustrator 19.0.0, SVG Export Plug-In . SVG Version: 6.00 Build 0)  -->
<svg version="1.1" id="Layer_1" xmlns="http://www.w3.org/2000/svg" xmlns:xlink="http://www.w3.org/1999/xlink" x="0px" y="0px"
	 viewBox="0 0 512 512" style="enable-background:new 0 0 512 512;" xml:space="preserve">
<rect x="30.83" y="60.133" style="fill:#F66232;" width="450.341" height="75.057"/>
<g>
	<rect x="30.824" y="135.199" style="fill:#FFFFFF;" width="450.351" height="341.546"/>
	<rect x="427.06" y="100.278" style="fill:#FFFFFF;" width="15.667" height="15.673"/>
	<rect x="367.428" y="100.278" style="fill:#FFFFFF;" width="15.667" height="15.673"/>
	<rect x="307.796" y="100.278" style="fill:#FFFFFF;" width="15.667" height="15.673"/>
	<rect x="248.163" y="100.278" style="fill:#FFFFFF;" width="15.667" height="15.673"/>
	<rect x="188.531" y="100.278" style="fill:#FFFFFF;" width="15.667" height="15.673"/>
	<rect x="128.899" y="100.278" style="fill:#FFFFFF;" width="15.667" height="15.673"/>
	<rect x="69.266" y="100.278" style="fill:#FFFFFF;" width="15.667" height="15.673"/>
</g>
<path d="M489.007,468.896l0.005-416.593h-76.094V27.429h-15.673v24.874h-43.959V27.429h-15.673v24.874h-43.96V27.429h-15.673v24.874
	h-43.959V27.429h-15.673v24.874h-43.96V27.429h-15.673v24.874h-43.959V27.429H99.081v24.874H22.988l0.005,416.593H0v15.673h108.081
	v-15.673H38.666l-0.004-325.863h434.675l-0.003,221.125L368.598,468.896H194.808v15.673H512v-15.673H489.007z M38.662,127.359
	l-0.001-59.383h60.42v19.24h15.673v-19.24h43.959v19.24h15.673v-19.24h43.96v19.24h15.673v-19.24h43.959v19.24h15.673v-19.24h43.96
	v19.24h15.673v-19.24h43.959v19.24h15.673v-19.24h60.42l-0.001,59.383H38.662z M473.335,386.324l-0.001,82.572h-82.571
	L473.335,386.324z"/>
<rect x="126.37" y="468.897" width="15.673" height="15.673"/>
<rect x="160.852" y="468.897" width="15.673" height="15.673"/>
<path d="M220.928,300.801c10.569,1.764,19.015,6.568,25.344,14.413c6.325,7.849,9.489,17.537,9.489,29.068
	c0,7.207-1.321,13.814-3.963,19.819c-2.643,6.006-6.407,11.129-11.291,15.375c-4.887,4.241-10.731,7.526-17.535,9.849
	c-6.81,2.32-14.377,3.484-22.701,3.484c-12.172,0-22.822-2.443-31.95-7.327c-9.129-4.887-16.017-11.651-20.66-20.299l11.29-10.33
	c3.364,7.045,8.488,12.65,15.376,16.816c6.884,4.163,15.532,6.246,25.944,6.246c12.011,0,21.458-2.924,28.346-8.769
	c6.884-5.847,10.33-14.211,10.33-25.104c0-11.051-3.604-19.778-10.811-26.185c-7.207-6.403-17.619-9.609-31.229-9.609H190.9v-13.934
	h6.486c12.33,0,21.778-2.841,28.346-8.527c6.565-5.683,9.849-13.093,9.849-22.222c0-4.804-0.881-9.046-2.641-12.732
	c-1.765-3.682-4.205-6.764-7.328-9.248c-3.123-2.482-6.809-4.361-11.051-5.646c-4.245-1.28-8.85-1.923-13.812-1.923
	c-9.129,0-17.176,2.042-24.143,6.126c-6.966,4.085-12.214,9.729-15.734,16.936l-10.57-10.09c1.922-4.163,4.642-7.965,8.167-11.411
	c3.521-3.442,7.526-6.366,12.011-8.768c4.482-2.402,9.448-4.283,14.895-5.646c5.443-1.359,11.051-2.042,16.816-2.042
	c7.364,0,14.132,1.044,20.298,3.122c6.164,2.084,11.49,5.007,15.975,8.769c4.481,3.766,7.965,8.288,10.45,13.573
	c2.481,5.285,3.723,11.133,3.723,17.537c0,4.804-0.72,9.41-2.161,13.814c-1.442,4.406-3.525,8.329-6.246,11.771
	c-2.725,3.445-6.047,6.329-9.969,8.648C230.334,298.679,225.89,300.162,220.928,300.801z"/>
<path d="M364.341,342.6v14.894h-81.436V342.6h34.112V239.782c-1.284,1.922-3.483,4.005-6.607,6.245
	c-3.123,2.244-6.568,4.324-10.329,6.246c-3.765,1.923-7.65,3.525-11.652,4.804c-4.005,1.284-7.53,1.923-10.57,1.923v-15.855
	c3.682,0,7.725-1.04,12.131-3.123c4.403-2.079,8.566-4.482,12.492-7.207c3.923-2.721,7.244-5.285,9.969-7.687
	c2.721-2.402,4.241-4.001,4.564-4.804h16.816V342.6L364.341,342.6L364.341,342.6z"/>
<g>
</g>
<g>
</g>
<g>
</g>
<g>
</g>
<g>
</g>
<g>
</g>
<g>
</g>
<g>
</g>
<g>
</g>
<g>
</g>
<g>
</g>
<g>
</g>
<g>
</g>
<g>
</g>
<g>
</g>
</svg>
