<?xml version="1.0" encoding="iso-8859-1"?>
<!-- Generator: Adobe Illustrator 19.0.0, SVG Export Plug-In . SVG Version: 6.00 Build 0)  -->
<svg version="1.1" id="Layer_1" xmlns="http://www.w3.org/2000/svg" xmlns:xlink="http://www.w3.org/1999/xlink" x="0px" y="0px"
	 viewBox="0 0 512 512" style="enable-background:new 0 0 512 512;" xml:space="preserve">
<g>
	<path style="fill:#F7EEE4;" d="M389.517,28.969l-18.759-11.255L256,185.438L141.241,17.714l0,0l-18.759,11.255
		C78.424,55.407,48.34,100.004,40.324,150.763L0,406.127h79.448l35.31-220.69v291.01l3.531,0.883
		c90.421,22.607,185.009,22.607,275.421,0l3.531-0.883v-291.01l35.31,220.69H512l-40.324-255.364
		C463.669,100.004,433.576,55.407,389.517,28.969"/>
	<g>
		<path style="fill:#D6CEC5;" d="M141.242,17.715l35.31,8.828c52.683,12.156,107.441,12.156,160.124,0l34.083-8.828L256.001,185.439
			L141.242,17.715z"/>
		<path style="fill:#D6CEC5;" d="M203.024,397.301H167.74c-4.882,0-8.845-3.955-8.845-8.836V361.99h52.966v26.474
			C211.86,393.346,207.906,397.301,203.024,397.301"/>
		<path style="fill:#D6CEC5;" d="M344.265,397.301h-35.284c-4.882,0-8.845-3.955-8.845-8.836V361.99h52.966v26.474
			C353.102,393.346,349.147,397.301,344.265,397.301"/>
		<path style="fill:#D6CEC5;" d="M489.179,441.439h-25.062c-8.174,0-15.298-5.561-17.284-13.497l-5.455-21.813h61.793l3.293,13.171
			C509.279,430.545,500.77,441.439,489.179,441.439"/>
		<path style="fill:#D6CEC5;" d="M24.03,441.439h23.111c8.616,0,16.119-5.862,18.202-14.212l5.279-21.098H8.829l-3.001,11.997
			C2.871,429.972,11.822,441.439,24.03,441.439"/>
	</g>
	<g>
		<polygon style="fill:#B7AB9F;" points="256.001,185.439 370.759,114.818 361.932,88.335 388.415,70.68 370.759,17.715 		"/>
		<polygon style="fill:#B7AB9F;" points="256.001,185.439 141.242,114.818 150.07,88.335 123.587,70.68 141.242,17.715 		"/>
	</g>
	<g>
		<path style="fill:#D6CEC5;" d="M238.346,247.232c0-4.873-3.955-8.828-8.828-8.828c-4.873,0-8.828,3.955-8.828,8.828
			c0,4.873,3.955,8.828,8.828,8.828C234.391,256.059,238.346,252.105,238.346,247.232"/>
		<path style="fill:#D6CEC5;" d="M291.311,247.232c0-4.873-3.955-8.828-8.828-8.828c-4.873,0-8.828,3.955-8.828,8.828
			c0,4.873,3.955,8.828,8.828,8.828C287.356,256.059,291.311,252.105,291.311,247.232"/>
		<path style="fill:#D6CEC5;" d="M238.346,211.921c0-4.873-3.955-8.828-8.828-8.828c-4.873,0-8.828,3.955-8.828,8.828
			c0,4.873,3.955,8.828,8.828,8.828C234.391,220.749,238.346,216.794,238.346,211.921"/>
		<path style="fill:#D6CEC5;" d="M291.311,211.921c0-4.873-3.955-8.828-8.828-8.828c-4.873,0-8.828,3.955-8.828,8.828
			c0,4.873,3.955,8.828,8.828,8.828C287.356,220.749,291.311,216.794,291.311,211.921"/>
		<path style="fill:#D6CEC5;" d="M238.346,317.852c0-4.873-3.955-8.828-8.828-8.828c-4.873,0-8.828,3.955-8.828,8.828
			s3.955,8.828,8.828,8.828C234.391,326.68,238.346,322.725,238.346,317.852"/>
		<path style="fill:#D6CEC5;" d="M291.311,317.852c0-4.873-3.955-8.828-8.828-8.828c-4.873,0-8.828,3.955-8.828,8.828
			s3.955,8.828,8.828,8.828C287.356,326.68,291.311,322.725,291.311,317.852"/>
		<path style="fill:#D6CEC5;" d="M238.346,282.542c0-4.873-3.955-8.828-8.828-8.828c-4.873,0-8.828,3.955-8.828,8.828
			c0,4.873,3.955,8.828,8.828,8.828C234.391,291.37,238.346,287.415,238.346,282.542"/>
		<path style="fill:#D6CEC5;" d="M291.311,282.542c0-4.873-3.955-8.828-8.828-8.828c-4.873,0-8.828,3.955-8.828,8.828
			c0,4.873,3.955,8.828,8.828,8.828C287.356,291.37,291.311,287.415,291.311,282.542"/>
		<path style="fill:#D6CEC5;" d="M264.828,494.152v-308.71c0-1.704-0.609-3.204-1.439-4.555l-7.389,4.555l-7.389-4.546
			c-0.83,1.342-1.439,2.842-1.439,4.546v308.71C253.061,494.24,258.94,494.24,264.828,494.152"/>
	</g>
	<g>
		<path style="fill:#B7AB9F;" d="M220.691,370.818H150.07c-4.882,0-8.828-3.946-8.828-8.828c0-4.882,3.946-8.828,8.828-8.828h70.621
			c4.882,0,8.828,3.946,8.828,8.828C229.518,366.872,225.572,370.818,220.691,370.818"/>
		<path style="fill:#B7AB9F;" d="M361.932,370.818h-70.621c-4.882,0-8.828-3.946-8.828-8.828c0-4.882,3.946-8.828,8.828-8.828
			h70.621c4.882,0,8.828,3.946,8.828,8.828C370.759,366.872,366.814,370.818,361.932,370.818"/>
	</g>
</g>
<g>
</g>
<g>
</g>
<g>
</g>
<g>
</g>
<g>
</g>
<g>
</g>
<g>
</g>
<g>
</g>
<g>
</g>
<g>
</g>
<g>
</g>
<g>
</g>
<g>
</g>
<g>
</g>
<g>
</g>
</svg>
