<?xml version="1.0" encoding="iso-8859-1"?>
<!-- Generator: Adobe Illustrator 19.0.0, SVG Export Plug-In . SVG Version: 6.00 Build 0)  -->
<svg version="1.1" id="Capa_1" xmlns="http://www.w3.org/2000/svg" xmlns:xlink="http://www.w3.org/1999/xlink" x="0px" y="0px"
	 viewBox="0 0 512.096 512.096" style="enable-background:new 0 0 512.096 512.096;" xml:space="preserve">
<path style="fill:#E8EAE9;" d="M512,29.915v323.2c0,16-13.867,29.867-29.867,29.867H29.867c-16,0-29.867-13.867-29.867-29.867
	v-323.2c0-16,13.867-29.867,29.867-29.867h452.267C498.133,0.048,512,13.915,512,29.915z"/>
<g>
	<path style="fill:#CED6E0;" d="M35.2,86.448l-1.067-1.067v-1.067c1.067,0,2.133-1.067,3.2-1.067s1.067,0,2.133,0c0,0,0,0,0,1.067
		c1.067,0,1.067,0,2.133,0c0-1.067,0-1.067-1.067-1.067c0,0,0,0-1.067,0H38.4c0-1.067-1.067-1.067-1.067-1.067h-1.067
		c0,0-1.067,0-1.067-1.067c0,0,0,0,0-1.067s0-1.067,1.067-1.067h1.067H38.4c0,0,1.067,0,1.067-1.067c0,0,0-1.067,1.067-1.067
		c0,0,1.067-1.067,2.133-1.067c0,0,1.067-1.067,1.067-1.067s1.067,0,1.067-1.067l0,0h1.067h1.067c0,0,1.067-1.067,1.067,0
		c1.067,0,1.067,0,2.133,1.067c0,0,0,0,1.067,0c2.133,0,2.133,0,2.133-1.067c1.067,0,1.067,0,2.133,1.067c0,0,0,0,1.067,0
		s2.133,0,2.133,0h1.067H60.8h1.067h1.067H64c1.067,0,1.067,0,2.133,0H67.2c1.067,0,2.133,0,3.2,0h1.067c0,0,1.067,0,1.067,1.067
		H73.6c0,0,0,0,0-1.067h1.067l0,0c1.067,0,2.133,0,2.133,0h1.067H80l0,0c0,0,1.067,0,2.133,0H83.2v1.067h1.067
		c0-1.067,0-1.067,0-1.067l0,0h1.067c0,0,1.067,0,1.067,1.067s1.067,1.067,1.067,1.067s0-1.067,1.067-1.067c0,0,1.067-1.067,1.067,0
		v1.067v1.067c0,0,1.067,0,1.067-1.067H96c1.067,0,1.067,0,2.133,1.067H99.2h1.067c1.067,0,2.133,0,3.2,0c0,0,0,0,1.067,0
		c-1.067,0-1.067,0-2.133-1.067c0,0,0,0,0-1.067c1.067,0,1.067,0,2.133-1.067c-1.067,0-2.133,0-3.2-1.067c0,0,0,0,0-1.067
		s-1.067,0-1.067-1.067v-1.067l0,0l0,0l0,0l0,0L99.2,71.515c0,0,0,0-1.067,1.067c0,1.067,0,1.067-1.067,1.067l0,0
		c-1.067,0-1.067,0-2.133,0c-1.067,0-1.067,0-1.067,0s0-1.067-1.067-1.067c-1.067,0-1.067-1.067-2.133-1.067l0,0v-1.067
		c0-1.067,1.067-1.067,1.067-2.133v-1.067c0,0,0,0,0-1.067l0,0H92.8h1.067h1.067l0,0H96c1.067,0,1.067,0,2.133,0
		c1.067,0,1.067,0,2.133,0c1.067,0,1.067,0,2.133,1.067c0,0,1.067,0,1.067,1.067c0,0,0,0,1.067,0c1.067,0,1.067,0,1.067,1.067
		c0,0,0,0,1.067,0c0,0,0,0,1.067,0c1.067,0,1.067,0,2.133,1.067c0,0,0,0,1.067,0v-1.067H112c0,0,0,0,1.067,0l0,0c0,0,0,0,1.067,0
		l0,0v-1.067c0,0,0-1.067,1.067-1.067c0,0,1.067,0,1.067,1.067l0,0l1.067-1.067c1.067,0,1.067,0,2.133,0l0,0v1.067
		c0,0,0,0-1.067,1.067c0,1.067,0,1.067,1.067,2.133v1.067c0,0,0,0,1.067,0c0,0,1.067,0,1.067,1.067c1.067,0,1.067,0,2.133,0h1.067
		v1.067c0,1.067,0,1.067,0,1.067s0,0-1.067,1.067l0,0l0,0l0,0c-1.067,0-2.133,0-3.2,0h-1.067l0,0l0,0c0,1.067,0,1.067,1.067,1.067
		c0,0,0,0,1.067,0h1.067c1.067,0,1.067,0,2.133,0h1.067h1.067v-1.067l0,0H128l0,0h-1.067v-1.067c0,0,0,0,1.067,0l0,0
		c0,0,0-1.067,1.067-1.067h1.067l0,0c0,1.067,1.067,1.067,1.067,1.067l0,0c0-1.067,0-1.067,0-1.067v-1.067v-1.067
		c1.067,0,2.133-1.067,2.133-2.133l-1.067-1.067c0-1.067,0-1.067,0-2.133l0,0c0,0,0-1.067,1.067-1.067h1.067l0,0
		c1.067,0,1.067,0,2.133,0s1.067,0,2.133,0h1.067l0,0l0,0l0,0l0,0c-1.067,0-1.067,1.067-2.133,2.133c0,0-1.067,1.067-1.067,0
		c0,0,0,0-1.067,0v1.067l0,0c0,0,0,1.067,1.067,1.067l1.067,1.067l0,0c0,0,0,0,1.067,0c0,0,0,0,1.067,1.067c0,0,0,0,0,1.067
		l1.067,1.067c0,0,1.067,0,1.067,1.067l0,0h1.067c0,0,1.067,0,1.067,1.067c0,0,0,0,0,1.067v1.067c0,0,0,0-1.067,0l0,0l0,0
		L144,80.048c0,0,0,0,1.067,0l0,0c0,0,0,0,0-1.067c0,0,0,0,1.067,0c0,0,0,0,1.067,0c0,0,0-1.067,1.067-1.067
		c0-1.067,0-1.067,0-2.133c0,0,0,0,0-1.067l0,0H147.2h-1.067c0,0-1.067,0-1.067-1.067H144c0,0,0,0,0-1.067c0,0,0,0-1.067,0l0,0
		c0,0,0,0,0-1.067s0-1.067,0-2.133c1.067-1.067,1.067-2.133,2.133-2.133c1.067-1.067,1.067,0,2.133,0h1.067
		c1.067,0,1.067,0,2.133,1.067c1.067,0,2.133-1.067,4.267,0c0,0,0,0,1.067,0l0,0c1.067,0,1.067,0,2.133,0l0,0h1.067l0,0
		c1.067,0,1.067,1.067,2.133,1.067c0,1.067,1.067,1.067,1.067,1.067l1.067,1.067c0,0,0,0,0,1.067c1.067,0,1.067,0,2.133,0
		c1.067,0,1.067,0,2.133,1.067l1.067,1.067c0,0,0,0,1.067,0s1.067,0,2.133,0c0,0,1.067,0,1.067,1.067l1.067,1.067v1.067
		c0,0,0,0,1.067,1.067l0,0l0,0l0,0l0,0H176h1.067h1.067l0,0c1.067,0,1.067,1.067,2.133,1.067h1.067c1.067,0,1.067,1.067,2.133,1.067
		c0,0,0,0,0,1.067c0,0,0,0-1.067,0c0,1.067,0,1.067-1.067,1.067c0,0,0,1.067-1.067,1.067H179.2c-1.067,0-1.067,0-2.133-1.067l0,0
		l0,0c0-1.067-1.067-1.067-1.067-1.067v1.067c-5.333,2.133-5.333,3.2-5.333,3.2c1.067,0,2.133,1.067,3.2,3.2l0,0
		c-1.067,0-1.067,0-1.067,1.067c0,0,0,0,1.067,0c0,1.067-1.067,1.067-1.067,0l0,0c-1.067-1.067-1.067-1.067-2.133-1.067l0,0
		l1.067,1.067c0,0,0-1.067,1.067,0c0,0,1.067,0,1.067,1.067c0,0,0,1.067-1.067,0l0,0c-1.067-1.067-2.133-1.067-3.2-1.067l0,0
		c-1.067,0-1.067,0-2.133,0c0,0-1.067,0-1.067-1.067l0,0h-1.067c-1.067-1.067-2.133-2.133-3.2-2.133c0,0-1.067,0-1.067-1.067H160
		h-1.067l0,0c0,0,0,0-1.067,0c-1.067,0-1.067,0-2.133-1.067l0,0c0-1.067,0-1.067,0-1.067s0,0,1.067-1.067c1.067,0,1.067,0,2.133,0
		l0,0c1.067,0,1.067,0,2.133,0l0,0c0,0,0-1.067-1.067-1.067c0-1.067,1.067-1.067,1.067-1.067s1.067,0,1.067-1.067l1.067-1.067
		c0-1.067-1.067-1.067-1.067-2.133l0,0l0,0l0,0l0,0l0,0h-1.067H160c0,1.067-1.067,1.067-1.067,1.067h-1.067l0,0
		c0,0-1.067,0-1.067-1.067v-1.067c1.067-1.067,1.067-1.067,2.133-1.067l0,0l0,0c0,0,0,0,0-1.067h-1.067l0,0
		c0-1.067-1.067-1.067-1.067-1.067l0,0l-1.067,1.067h1.067l0,0l0,0c0,1.067-1.067,0-1.067,0s0,0,0,1.067c0,0,0,0-1.067,0v-1.067
		c0,0-1.067,0-1.067-1.067l1.067-1.067l0,0H153.6c0,0,0,0-1.067,0c0-1.067-1.067,0-1.067-1.067H150.4l0,0
		c1.067,1.067,1.067,2.133,0,2.133l0,0v1.067c0,0,1.067,0,1.067,1.067s0,1.067-1.067,1.067c0,0,0,1.067-1.067,1.067
		c0,0,0,0-1.067,1.067c0,0,0,0-1.067,0v1.067c-1.067,0-1.067,0-2.133,0l0,0c0,0,0,1.067,1.067,1.067
		c1.067,0,1.067,1.067,2.133,1.067c0,0,0,0,1.067,0l1.067,1.067c0,0,1.067,0,1.067,1.067l0,0l0,0l0,0c-1.067,0-1.067,0-2.133-1.067
		h-1.067l-1.067,1.067c0,0,0,0-1.067,0c0,0-1.067,0-1.067-1.067l0,0c-1.067,0-1.067,0-2.133,0c0-1.067,1.067-1.067,1.067-1.067
		c0-1.067,0-2.133,0-3.2c-1.067,0-1.067,0-1.067,1.067c0,0,0,0,0,1.067l-1.067,1.067c0,0-1.067,0-1.067,1.067l0,0
		c-1.067,0-1.067,0-2.133,1.067l0,0c0,1.067-1.067,1.067-1.067,1.067l0,0c-1.067,0-1.067,1.067-1.067,1.067l0,0l0,0h-1.067
		c0,0,0,0-1.067,1.067l0,0c-1.067,1.067-1.067,2.133-1.067,3.2c0,0,0,1.067,1.067,1.067c0,0,0,0,1.067,0c0,0,1.067,0,1.067,1.067
		c0,0,0,0,0,1.067s0,1.067,1.067,2.133h1.067h1.067c1.067,0,1.067,1.067,2.133,1.067l0,0l1.067,1.067c0,0,1.067,0,1.067,1.067
		c0,0,1.067,0,1.067,1.067l0,0c0,0,1.067,0,1.067,1.067c1.067,0,2.133,0,2.133,0l0,0h1.067l0,0v1.067v1.067v1.067h1.067
		c0,0,1.067,0,1.067,1.067v1.067l0,0c0,0,0,0,0,1.067c0,0,0,0,0,1.067l0,0c0-1.067,1.067-1.067,1.067-1.067c0-1.067,0-1.067,0-2.133
		v-1.067c0,0,0-1.067-1.067-1.067c0,0,0-1.067,1.067-1.067c1.067,0,2.133-1.067,2.133-1.067l0,0c0,0,1.067-1.067,1.067-2.133
		s0-2.133-1.067-2.133l-1.067-1.067c0,0-1.067,0-1.067-1.067l0,0c0,0,1.067,0,1.067-1.067c0,0,1.067-1.067,1.067-2.133v-1.067
		c0,0,0,0-1.067,0c0,0,0,0,1.067-1.067v-1.067c0-1.067,0-1.067,0-2.133c1.067,0,1.067,0,2.133,0s2.133,0,3.2,0l0,0c0,0,0,0-1.067,0
		l0,0c0,0,1.067,0,1.067,1.067c0,0,1.067,0,1.067,1.067l0,0c0,0,1.067,0,1.067,1.067v1.067c1.067,0,1.067,0,2.133,0c0,0,0,0,1.067,0
		v1.067c0,1.067,0,1.067,0,2.133c1.067,1.067,1.067,1.067,2.133,2.133s1.067,1.067,2.133,0l0,0l1.067-1.067c0,0,0-1.067,1.067-1.067
		c0,0,0-1.067,1.067-1.067c1.067,0,1.067,1.067,1.067,2.133c0,0,0,0,0,1.067c1.067,1.067,1.067,1.067,1.067,2.133
		c0,0,0,1.067,1.067,1.067c0,0,0,1.067,1.067,1.067v1.067l0,0l0,0c0,1.067,1.067,2.133,1.067,2.133l1.067,1.067h1.067
		c0,0,1.067,0,1.067,1.067h1.067c0,0,0,0,0,1.067v1.067l0,0c0,0,0,0,1.067,1.067c0,0,1.067,1.067,0,1.067v1.067v1.067v1.067
		c0,0,0,0,0,1.067l0,0l-1.067,1.067h1.067l1.067,1.067h1.067c1.067,0,1.067,0,2.133,1.067v1.067h1.067v1.067l0,0c0,0,0,0,0,1.067
		c0,0,0,0,0,1.067v1.067c0,1.067,0,1.067-1.067,1.067c0,0-1.067,0-1.067-1.067v-1.067H185.6c0,1.067-1.067,0-1.067,0v-1.067
		c0,0,0,0-1.067,0c-1.067,0-1.067,0-2.133,0c0,0,0,0-1.067,0H179.2c0,0,0,0,0-1.067c0,0,0-1.067,1.067-1.067l0,0
		c0,0,0,0,1.067-1.067c0-1.067,1.067-2.133,1.067-3.2v-1.067c0,0,0,0,0-1.067l0,0c-1.067,0-1.067,0-2.133,1.067
		c0,1.067-1.067,1.067-1.067,1.067l0,0c-1.067,0-1.067,0-2.133,0l0,0c-1.067,0-1.067,0-2.133,0c0,0,0,0-1.067,0
		c-1.067,0-1.067,0-2.133,0h-1.067c0,0,0,0,0,1.067c0,1.067-1.067,1.067-1.067,1.067l-1.067,1.067l0,0h1.067
		c1.067-1.067,2.133-1.067,3.2-1.067c1.067,0,1.067,0,2.133,0c0,0,0,0,0,1.067v1.067l0,0v1.067c0,0,0,0-1.067,0v2.133l1.067-1.067
		l0,0l0,0H176c0,0,0,0,1.067,0l0,0c0,0,0,0,0,1.067h1.067c0-1.067,1.067-2.133,1.067-2.133s0,0,0,1.067c0,0,0,0,0,1.067
		c0,0,0,0,1.067,1.067v1.067c0,0-1.067,0-1.067,1.067l0,0c0,1.067-1.067,1.067-1.067,1.067s-1.067,0-1.067,1.067l0,0H176
		c-1.067,1.067-1.067,1.067-2.133,2.133l0,0c0,0-1.067,0-1.067-1.067v-1.067c0-1.067,1.067-1.067,2.133-2.133l0,0
		c-1.067,0-1.067,0-2.133,1.067c0,0,0,0,0,1.067c-1.067,0-2.133,1.067-2.133,1.067s0,0-1.067,0s-1.067,1.067-2.133,2.133v1.067l0,0
		v1.067l0,0l0,0v1.067c0,0,0,0-1.067,1.067l0,0h-1.067c0,0,0,0-1.067,0c0,0,0,0,0,1.067c0,0,0,0-1.067,0h-1.067
		c0,0-1.067,0-1.067,1.067c0,1.067,0,1.067-1.067,2.133v1.067l0,0c0,1.067,0,2.133,0,2.133s0,0,0,1.067s0,1.067-1.067,1.067
		c0,0,0,0,0,1.067v1.067c0,1.067,0,1.067,0,2.133c0,0,0,0-1.067,1.067l-1.067,1.067c0,0-1.067,0-1.067,1.067v1.067h-1.067
		c0,0-1.067,0-1.067,1.067c0,0,0,0,0,1.067c-1.067,1.067-1.067,1.067-2.133,2.133c-1.067,0-1.067,1.067-1.067,2.133s0,1.067,0,2.133
		s0,2.133,1.067,3.2l0,0c0,1.067,0,1.067,0,2.133c0,0,0,1.067,0,2.133v1.067v1.067c0,0,0,0,0,1.067v1.067c0,0,0,0-1.067,0
		c0,0,0,0,0-1.067c0,0,0,0,0-1.067c0-1.067-2.133-3.2-2.133-3.2v-1.067v-1.067l0,0c0-1.067-1.067-1.067-1.067-2.133l0,0
		c0,0-1.067,0-1.067,1.067c0,0,0,0-1.067,0c0,0,0-1.067-1.067-1.067c-1.067,0-1.067-1.067-2.133,0c-1.067,0-1.067,0-2.133,0l0,0
		v1.067c0,1.067,0,1.067,0,1.067c0-1.067,0-1.067-1.067,0c0,0,0,0-1.067,0c-1.067,0-1.067,0-2.133-1.067c0,0-1.067,0-1.067-1.067
		c-1.067,0-2.133,0-2.133,1.067s-1.067,1.067-2.133,1.067s-1.067,1.067-1.067,2.133v1.067c0,1.067,0,1.067,0,2.133v1.067v1.067
		c0,1.067,0,2.133,0,3.2c0,1.067,0,1.067,0,2.133l0,0c0,1.067,0,2.133,1.067,2.133c0,0,0,1.067,1.067,1.067
		c0,1.067,0,1.067,1.067,2.133h1.067c0,0,1.067,0,1.067,1.067c0,0,0,0,1.067,0h1.067l0,0h1.067l0,0l0,0
		c1.067-1.067,1.067-1.067,1.067-3.2c0-1.067,0-2.133,1.067-2.133h1.067l0,0c1.067,0,1.067,0,2.133,0c0,0,0,0,1.067,0
		c0,1.067,0,1.067,0,2.133l0,0l0,0c0,1.067,0,2.133,0,4.267l0,0c0,0,0,1.067,0,2.133c0,1.067,0,1.067,0,2.133c0,0,0,0,0,1.067h1.067
		h1.067c1.067,0,1.067,0,1.067,0h1.067l0,0h1.067l1.067,1.067l0,0v1.067v1.067c0,1.067,0,1.067,0,2.133s0,2.133,0,3.2v1.067l0,0
		c0,1.067,1.067,2.133,1.067,2.133s1.067,0,1.067,1.067c0,0,1.067,0,1.067,1.067l0,0l0,0l1.067-1.067l0,0h1.067c0,0,0,0,1.067,0
		c0,0,1.067,0,1.067,1.067c0,0,0,1.067,1.067,1.067c1.067-1.067,1.067-1.067,2.133-2.133v-1.067c0,0,0,0,0-1.067
		c0-1.067,1.067-1.067,1.067-1.067l0,0c0-1.067,0-1.067,1.067,0l0,0l1.067-1.067v-1.067h1.067l0,0v1.067c0,0,0,0-1.067,0v1.067l0,0
		c0-1.067,1.067,0,1.067-1.067c0-1.067,0-1.067,0-1.067l0,0l0,0c0,1.067,0,1.067,1.067,2.133c1.067,0,2.133,1.067,2.133,2.133h1.067
		h1.067h1.067c0,0,1.067,0,1.067,1.067c1.067,0,1.067,0,1.067-1.067l0,0c0,0,0,0,1.067,0v1.067l0,0c1.067,0,1.067,0,2.133,0
		c0,0,0,0-1.067,1.067c0,1.067,0,0,1.067,0l0,0v-1.067c0,0,0,0,1.067,0v1.067l0,0l0,0c1.067,0,1.067,1.067,1.067,2.133l1.067,1.067
		c1.067,1.067,1.067,1.067,2.133,2.133c0,1.067,1.067,2.133,2.133,2.133h1.067c1.067,0,1.067,0,2.133,0c0,0,1.067,0,1.067,1.067l0,0
		c1.067,0,1.067,0,1.067,1.067l1.067,1.067l1.067,1.067v1.067c0,1.067,0,1.067,0,2.133c0,0,1.067,0,1.067,1.067c0,0,0,0,1.067,0
		c0,0,1.067,0,1.067,1.067c0,0,0,0,0,1.067l0,0c0,1.067,0,1.067,1.067,2.133v1.067c1.067,0,1.067,0,2.133,1.067
		c0,0,1.067,0,1.067,1.067c0,0,0,0,1.067,0c0,0,1.067,0,1.067,1.067v1.067c0,0,0,1.067,1.067,0c0,0,0,0,1.067,0
		c0,0,1.067,0,1.067,1.067l0,0h1.067c0,0,0,0,1.067,0H208c0,0,0,0,1.067,0c1.067,1.067,1.067,1.067,2.133,2.133
		c0,1.067,1.067,1.067,1.067,1.067h1.067h1.067c0,0,1.067,0,1.067,1.067c0,1.067,1.067,2.133,1.067,3.2v1.067v1.067
		c0,1.067,0,2.133-1.067,2.133c0,0,0,1.067-1.067,1.067c0,0,0,1.067-1.067,1.067l0,0c0,1.067-1.067,1.067-1.067,2.133
		s-1.067,2.133-2.133,3.2c0,1.067,0,3.2,0,5.333c0,0,0,0,0,1.067c0,1.067,0,1.067,0,2.133v1.067v1.067c0,0,0,1.067,0,2.133v1.067
		c0,1.067,0,1.067-1.067,2.133v1.066c0,1.067-1.067,1.067-1.067,2.133v1.067c-1.067,0-1.067,1.067-1.067,1.067l0,0
		c-1.067,0-1.067,0-2.133,0h-1.067c0,0-1.067,0-1.067,1.067v1.067H201.6c-1.067,0-1.067,1.067-2.133,2.133
		c-1.067,0-1.067,1.067-1.067,2.133v1.067c0,1.067,0,2.133,0,3.2v1.067c0,1.067,0,1.067-1.067,1.067
		c-1.067,1.067-1.067,1.067-1.067,2.133c0,2.133-1.067,3.2-2.133,4.267l-1.067,1.067v1.067c0,1.067-1.067,1.067-1.067,2.133l0,0
		c-1.067,1.067-1.067,1.067-2.133,1.067c0,0-1.067,0-1.067,1.067l-1.067,1.067c0,0,0,0,0,1.067v1.067c0,0,0,1.067-1.067,1.067
		l-1.067,1.067c0,0,0,1.067-1.067,1.067c-1.067,1.067-1.067,0-2.133,1.067c-1.067,0-1.067,0-2.133,0
		c-1.067,0-1.067,1.067-1.067,2.133v1.067c0,1.067,0,1.067-1.067,1.067h-1.067H176h-1.067l0,0l0,0c0,0,0,1.067,0,2.133
		c0,0,0,1.067,1.067,0h1.067v1.067c0,0,0,0-1.067,0l0,0c0,0,0,1.067-1.067,1.067c0,0,0,1.067-1.067,1.067c0,0,0,0,0,1.067
		s0,1.067,0,1.067v1.067H172.8c-1.067,0-1.067,1.067-1.067,2.133v1.066c1.067,0,1.067,1.067,2.133,1.067l0,0c0,0,0,0,0,1.067v1.067
		c0,0-1.067,0-1.067,1.067c0,0,0,0-1.067,1.067c-1.067,0-1.067,1.067-1.067,2.133l-1.067,1.067c0,0-1.067,0-1.067,1.067v1.067
		c0,1.067,0,2.133,1.067,2.133l0,0c0,0,0,0,1.067,1.067v1.067c0,0,0,0,0,1.067c1.067,1.067,1.067,1.067,2.133,2.133h1.067v1.067l0,0
		H172.8l0,0l0,0h-1.067v1.067c-1.067,0-1.067,0-1.067,0s-1.067,0-1.067-1.067l0,0c-1.067,0-1.067,0-1.067-1.067l0,0
		c-1.067,0-1.067-1.067-1.067-1.067s0,0-1.067,0c0,0,0,0,0-1.067c-5.333-5.333-6.4-5.333-6.4-6.4l0,0l0,0c0,0,0-1.067-1.067-1.067
		v-1.067l0,0c0,0,0,0,0-1.067v-1.067c0-1.067,0-2.133,0-2.133s0,0,0-1.067v-1.067v-1.067c0,0,0-1.067,1.067-1.067l0,0v-1.067l0,0
		l0,0c0,0,0,0-1.067,0v-1.067l1.067-1.067c0-1.067,0-1.067,1.067-2.133c0,0,0,0,0-1.067c0,0,0,0,0-1.067v-1.067c0,0,0-1.067,0,0
		c0,0,0,0,0,1.067l0,0l0,0v-1.067v-1.067c0-1.067,0-1.067,0-2.133l0,0l0,0v1.067c0,0,0,1.067-1.067,2.133c0,0,0,0-1.067,0l0,0
		c0-1.067,0-1.067,0-2.133v-1.067l0,0c0-1.067,0-1.067,0-2.133l0,0c0-1.067,0-2.133,1.067-2.133c0,0,0,0,0-1.067l0,0
		c0-1.067,0-1.067,0-2.133c0-1.067,0-1.067,0-2.133l0,0l0,0c0-1.067,0-2.133,1.067-3.2c0-1.067,1.067-2.133,1.067-3.2
		c0-1.067,0-1.067,0-2.133l0,0c0-1.067,0-2.133,0-3.2v-1.067c0-1.067,0-1.067,0-2.133l0,0c0,0,0,0,0-1.067c0-1.067,0-1.067,0-2.133
		s0-2.133,0-2.133s0,0,0-1.067s0-1.067,0-2.133v-1.067c0-1.067,0-1.067,0-2.133l0,0c0-1.067,0-1.067,0-2.133v-1.067
		c0-1.067,0-1.067,0-2.133l0,0v-1.067c0,0,0-1.067,0-2.133v-1.067c0-1.067,0-2.133,0-3.2l-1.067-1.067l0,0
		c0-1.067-1.067-2.133-2.133-2.133c-1.067-1.067-1.067-1.067-2.133-2.133c-1.067,0-1.067-2.133-2.133-3.2v-1.067c0,0,0,0,0-1.067
		c0-1.067,0-1.067-1.067-2.133v-1.067c0-1.067,0-1.067,0-1.067v-1.067c-1.067-1.067-1.067-3.2-1.067-4.267c0,0,0-1.067-1.067-1.067
		c0,0,0-1.067-1.067-1.067c0-1.067-1.067-2.133-2.133-2.133v-1.067v-1.067v-1.067c0-1.067,0-1.067,0-2.133v-1.067c0,0,0,0,1.067,0
		l0,0c0-1.067,0-1.067-1.067-2.133c0,0,0,0,0-1.067v-1.067c0,0,0,0,0-1.067c0,0,0,0,0-1.067c0,0,0,0,0-1.067
		c0-1.067,0-1.067,0-2.133c0,0,0-1.067,1.067-1.067c0,0,0,0,1.067-1.067v-1.067c0-1.067,0-1.067,0-1.067s0,0,1.067,0
		c0,0,0-1.067,1.067-1.067c0,0,0,0,0-1.067c0,0,0,0,0-1.067c0-1.067,0-1.067,0-2.133v-1.067c0-1.067,0-1.067,0-2.133
		c0-1.067-1.067-1.067-1.067-2.133v-1.067l0,0c0,0,0-1.067-1.067-1.067c0,0,0,0-1.067,0l-1.067,1.067v1.067
		c0,1.067-1.067,1.067-1.067,1.067s0-1.067-1.067-1.067c0-1.067,0-1.067-1.067-1.067l0,0c0,0,0,0-1.067,0c0,0,0,0-1.067,0l0,0
		c0-1.067,0-1.067-1.067-1.067c0,0-1.067,0-1.067-1.067l0,0l0,0l-1.067-1.067c0,0,0,0,0-1.067s0-1.067-1.067-1.067c0,0,0,0,0-1.067
		c0-1.067-1.067-1.067-1.067-2.133v-1.067c-1.067,0-1.067,0-2.133,0c0,0-1.067,0-2.133-1.067h-1.067H131.2l-1.067-1.067
		c0-1.067-1.067-1.067-1.067-2.133L128,186.715h-1.067c-1.067,0-1.067,1.067-2.133,1.067l0,0c-1.067,0-1.067-1.067-2.133-1.067
		l-1.067-1.067c-1.067,0-1.067-1.067-2.133-1.067l-1.067-1.067c0,0,0,0-1.067,0h-1.067c0,0-1.067,0-1.067-1.067
		c0,0,0-1.067-1.067-1.067c0,0-1.067,0-1.067-1.067c0,0,0-1.067-1.067-1.067c0-1.067,0-1.067,1.067-2.133
		c0-1.067-1.067-1.067-1.067-2.133v-1.067c0,0,0,0-1.067-1.067c0-1.067-1.067-1.067-1.067-2.133l-1.067-1.067
		c0-1.067-1.067-1.067-1.067-2.133c0,0,0,0-1.067-1.067v-1.067l0,0c0,0,0,0-1.067-1.067l0,0l-1.067-1.067
		c-1.067,0-1.067-1.067-2.133-2.133c0,0,0,0-1.067,0l0,0c0-1.067,0-1.067,0-2.133c0,0,0-1.067-1.067-1.067v-1.067l-1.067-1.067l0,0
		v1.067c0,1.067,0,1.067,0,2.133l0,0c0,0,0,1.067,1.067,1.067c0,0,0,0,1.067,1.067c0,1.067,1.067,2.133,1.067,3.2l0,0
		c1.067,1.067,1.067,1.067,1.067,2.133c0,0,0,0,0,1.067v1.067c0,1.067,0,1.067,1.067,1.067v1.067l0,0h1.067
		c0,1.067,1.067,1.067,1.067,2.133c0,0,0,1.067-1.067,1.067l0,0l0,0c0-1.067-1.067-2.133-2.133-3.2c0,0-1.067,0-1.067-1.067
		c0,0,0,0,0-1.067c0-1.067,0-2.133-1.067-2.133c-1.067,0-1.067-1.067-2.133-1.067s-1.067-1.067-2.133-2.133h1.067l0,0v-1.067
		c0,0,0-1.067-1.067-1.067l0,0c0,0-1.067-1.067-1.067-2.133s0-2.133-1.067-2.133c0,0,0,0,0-1.067l0,0c0-1.067-1.067-2.133-1.067-3.2
		l0,0c-1.067-1.067-1.067-1.067-2.133-1.067c7.467-2.133,7.467-2.133,6.4-2.133l0,0c0-1.067,0-1.067-1.067-2.133
		c0,0-1.067-1.067-1.067-2.133v-1.067c0-1.067-1.067-1.067-1.067-2.133l0,0l0,0c0-1.067-1.067-1.067-1.067-2.133v-1.067v-1.067l0,0
		c0,0,0-1.067,0-2.133s0-2.133,0-2.133c0-1.067,0-2.133,0-3.2s0-2.133,0-2.133v-1.067v-1.067c0-1.067,0-3.2-1.067-4.267
		c0,0,0-1.067,0-2.133c0,0-1.067,0-1.067-1.067c0,0-1.067,0-1.067-1.067c-1.067,0-1.067-1.067-2.133-2.133c0,0,0,0-1.067,0
		c0,0,0,0,0-1.067l0,0l0,0c0,0,0,0,0-1.067c0,0,0,0,0-1.067s0-1.067-1.067-2.133v-1.067c0,0-1.067,0-1.067-1.067c0,0,0,0,0-1.067
		s0-2.133,0-2.133h-1.067c0,0,0,0,0,1.067l0,0l0,0H83.2l0,0c0,0,0,0,0-1.067c0,0,0,0,0-1.067c0-1.067,0-1.067-1.067-2.133v1.067
		c0-1.067-1.067-1.067-1.067-2.133l0,0c0,0,0-1.067-1.067-1.067c0,0,0,0,0-1.067l0,0c-5.333,2.133-5.333,1.067-5.333,1.067l0,0
		c0,0-1.067,0-1.067-1.067c0,0,0,0,0-1.067c-1.067,0-1.067,0-2.133,0s-2.133-1.067-3.2,0H67.2c0,0,0,0,0-1.067c-2.133,0-3.2,0-3.2,0
		s0,0-1.067,0l0,0v-1.067h-1.067l0,0l0,0l0,0l0,0c0,1.067-1.067,1.067-1.067,1.067c-1.067,0-1.067,0-2.133,0s-2.133,1.067-3.2,1.067
		v-1.067c0-1.067,0-1.067-1.067-1.067c0,0,0,1.067-1.067,1.067c0,0-1.067,0-1.067,1.067l0,0l0,0l0,0c0,0,1.067,0,1.067,1.067v1.067
		c0,0,0,0-1.067,1.067l0,0c-1.067,0-1.067,0-1.067,1.067l0,0c0,0-1.067,0-1.067,1.067c0,0,0,0-1.067,1.067L48,104.581l0,0l0,0
		l-1.067,1.067l0,0h-1.067c0,1.067,0,1.067,0,1.067s1.067,0,1.067,1.067c0,0,0,0-1.067,1.067c0,0,0,0,0-1.067c0,0,0,0-1.067,0l0,0
		c0,0,0,0-1.067,0l0,0c-1.067-1.067-1.067-1.067-1.067-1.067H41.6l0,0l0,0h-1.067h-1.067l-1.067,1.067h-1.067l-1.067,1.067l0,0H35.2
		h-1.067c0,0,0,0-1.067,0v-1.067c0,0,1.067-1.067,1.067,0c0,0,0,0,1.067,0l0,0l0,0c0,0,0,0,1.067,0l0,0c0-1.067,1.067,0,2.133,0
		c0,0,0-1.067,1.067-1.067h1.067c1.067,0,1.067-1.067,1.067-1.067l1.067-1.067h1.067H44.8l0,0c0-1.067,1.067-1.067,1.067-1.067
		s1.067,0,1.067-1.067L48,101.381v-1.067h-1.067c0,0,0,0-1.067,0c0-1.067-1.067-1.067-1.067,0c0,0,0,0-1.067,0c0,0,0,0,0,1.067
		c0,0-1.067,0-2.133,0l0,0c0,0,0,0,0-1.067c0,0,0,0,0-1.067c-1.067-1.067-2.133-1.067-3.2,0l-1.067-1.067c0,0-1.067,0-1.067-1.067
		c0,0,0,0,0-1.067c0,0,0,0-1.067-1.067c0-1.067,0-1.067,0-2.133l0,0l1.067-1.067c0,0,0-1.067,1.067-1.067c0,0,0,0,1.067,0h1.067l0,0
		h1.067H41.6c0,0,1.067,0,1.067-1.067c0-1.067,0-2.133,0-2.133l0,0l0,0H41.6h-1.067h-1.067c-1.067,0-2.133,0-3.2,0
		C35.2,86.448,35.2,86.448,35.2,86.448z"/>
	<path style="fill:#CED6E0;" d="M178.133,52.315C177.067,52.315,177.067,52.315,178.133,52.315
		C177.067,51.248,178.133,51.248,178.133,52.315c1.067-1.067,1.067-1.067,2.133-1.067c0,0,0,0,1.067,0l0,0c1.067,0,1.067,0,2.133,0
		h1.067h1.067h1.067c0,0,1.067,0,1.067,1.067l0,0l0,0l0,0v-1.067c1.067,0,1.067,0,1.067,1.067v-1.067l0,0
		c1.067,0,1.067,1.067,2.133,1.067H192l0,0c0,0,0-1.067-1.067-1.067l0,0H192h1.067c0,0,0,0,1.067,0s1.067,0,2.133,0h1.067
		c0,0,0,0,1.067,0c0,0-1.067,0-1.067-1.067c0,0,0,0-1.067,0H195.2l0,0c0,0,0,0,1.067,0h1.067l0,0l0,0c0,0,0,0,1.067,0h1.067h1.067
		c1.067,0,1.067,0,2.133,0h1.067l0,0h1.067c1.067,0,2.133,0,3.2,0c1.067,0,2.133,0,3.2,0c0,0,0,0,1.067,0l0,0c1.067,0,2.133,0,3.2,0
		h1.067c0,0,0,0,1.067,0h1.067c1.067,0,1.067,0,2.133,0h1.067h1.067l0,0c0,0,0,0,1.067,0h1.067l0,0h1.067h1.067h1.067
		c0,0,0,0,1.067,0c-1.067,0-1.067,1.067-2.133,1.067c0,0,0,0-1.067,0l0,0l0,0h1.067l0,0c0,0,0,0,0,1.067
		c2.133,1.067,1.067,1.067,1.067,1.067h1.067h1.067c0,0,0,0,1.067,0h1.067c0,0,0,0,0,1.067c1.067,0,1.067,0,2.133,0l0,0l0,0h1.067
		l0,0h1.067h1.067c1.067,0,2.133-1.067,3.2,0h1.067c1.067,0,1.067,0,2.133,0l0,0c-1.067,0-1.067,0-2.133,1.067l0,0l0,0
		c-1.067,1.067-1.067,0-2.133,0l-1.067,1.067l0,0c0,0-1.067,1.067-2.133,1.067h-1.067c0,0,0,1.067,1.067,1.067v1.067
		c0,0,1.067,0,1.067-1.067h1.067c0,1.067-1.067,1.067-1.067,2.133v1.067v1.067c0,0,0,0,1.067,0c0,0,0,0,0,1.067
		c0,0,0,1.067-1.067,1.067v1.067H236.8c0,0,0-1.067-1.067-1.067c0,0,0,0-1.067,0c0,0,0,0-1.067,0v1.067c0-3.2,0-2.133,1.067-2.133
		v1.067l0,0c0,1.067,1.067,1.067,1.067,1.067c0-1.067,0,0,0-1.067l0,0v-1.067h1.067l1.067,1.067c0,1.067,0,1.067,0,0
		c0,0,0,0-1.067,0c0,0,0,0,0,1.067c-1.067,0-1.067,1.067-2.133,1.067c0,1.067-1.067,1.067-1.067,1.067c-1.067,0-2.133,0-2.133,0
		s1.067,1.067,0,1.067c0,1.067,0,1.067-1.067,1.067c0,0,1.067,0,1.067,1.067v1.067v1.067c0,1.067,0,1.067-1.067,1.067
		c0,0,0,0-1.067,0h-1.067c0,0-1.067,0-1.067-1.067c0,0,0,0,0-1.067c0,0-1.067,0-1.067,1.067c0,0,0,0,0,1.067
		c1.067,0,1.067,0,2.133,1.067c1.067,0,1.067,0,2.133,0l0,0c0,0-1.067,0-1.067,1.067l0,0h-1.067c0,0-1.067,0-1.067,1.067
		c-1.067,0-1.067,1.067-2.133,1.067s-2.133,0-3.2,1.067c-1.067,0-2.133,1.067-3.2,0H217.6c0,0,0,0-1.067,0l-1.067,1.067
		c-1.067,1.067-1.067,1.067-2.133,2.133c-1.067,0-1.067,0-2.133,1.067h-1.067c-1.067,0-1.067,0-2.133,0
		c-1.067,0-1.067,0-1.067,1.067h-1.067c0,0,0,0,0,1.067v1.067v1.067c-1.067,1.067-1.067,2.133-2.133,2.133l0,0
		c0,1.067,0,2.133,0,2.133c-1.067,2.133-1.067,2.133-1.067,3.2c0,1.067,0,1.067-1.067,1.067l0,0c-1.067,0-1.067,0-2.133,0l0,0
		c-1.067-1.067-1.067-1.067-2.133-1.067l0,0h-1.067H195.2c0,0,0,0,0-1.067s-1.067-1.067-1.067-2.133
		c0-1.067-1.067-1.067-1.067-1.067l0,0c-1.067,0-1.067-1.067-1.067-1.067l0,0c-1.067,0-1.067-1.067-1.067-2.133
		c0-1.067,0-1.067-1.067-1.067c0,0,0-1.067-1.067-1.067v-1.067v-1.067v-1.067l0,0c0-1.067,0-1.067,0-2.133c0,0,0-1.067,1.067-1.067
		h1.067l0,0l0,0v-1.067c0,0,0-1.067-1.067-1.067l0,0c0,1.067,0,1.067-1.067,1.067h-1.067h-1.067l0,0H185.6v-1.067c0,0,0,0,0-1.067
		c0,0,0,0,1.067,0l0,0l0,0l0,0c1.067,0,2.133,0,2.133,0l0,0l0,0h-1.067c0,0-1.067,0-1.067-1.067H185.6h-1.067l0,0
		c0,0-1.067-1.067,0-1.067c0,0,0,0,0-1.067v-1.067c0,0,0,0,0-1.067l0,0v-1.067c0,0,0-1.067-1.067-1.067
		c-1.067,0-1.067-1.067-1.067-2.133c0,0,0-1.067-1.067-1.067h-1.067c-1.067,0-1.067-1.067-2.133,0c0,0,0,0-1.067,0
		c-1.067,0-1.067,0-2.133,0c0,0,0,0-1.067,0H172.8c-1.067,0-1.067,0-2.133,0l0,0c-1.067,0-1.067,0-2.133,0s-2.133,0-2.133-1.067
		c0,0,0,0-1.067,0c0,0,0,0,0-1.067c0,0-1.067,0-1.067-1.067l0,0l0,0l0,0l0,0c0,0,0,0,1.067,0l0,0c-1.067,0-1.067,0-2.133,0h-1.067
		c0,0,0,0,0-1.067c0,0,1.067-1.067,2.133-1.067s2.133,0,3.2-1.067h1.067c1.067,0,2.133,0,3.2,0s1.067,0,2.133-1.067c0,0,0,0,0-1.067
		l0,0c-1.067,1.067-1.067,0-2.133,0c0,0,0,0-1.067,0c0-1.067,0-1.067,0-1.067c1.067,0,2.133-1.067,3.2-1.067
		c0,0,1.067-1.067,1.067,0c1.067,0,1.067,0,2.133,0l0,0C177.067,53.381,177.067,53.381,178.133,52.315
		C177.067,53.381,177.067,53.381,178.133,52.315L178.133,52.315z"/>
	<path style="fill:#CED6E0;" d="M322.133,273.115L322.133,273.115C322.133,273.115,323.2,273.115,322.133,273.115
		c1.067,0,1.067,0,1.067,0S323.2,273.115,322.133,273.115c1.067-1.067,1.067-1.067,1.067-2.133c0-1.067,0-1.067,0-2.133v-1.067
		v-1.067c0-1.067,0-1.067,0-2.133l0,0l0,0c0,0,0,0,0,1.067l1.067-1.067c1.067,0,1.067-1.067,1.067-1.067s0,0,1.067-1.067
		c0,0,0,0,1.067,0c0,0,0,0,1.067,0c0,0,0,0,1.067,0l0,0c0,0,1.067,0,1.067-1.067c1.067,0,1.067,0,2.133,0
		c1.067,0,1.067-1.067,1.067-2.133c0,0,0-1.067,1.067-1.067c0,0,0,0,0-1.067v-1.067l0,0c0-1.067,1.067-1.067,1.067-2.133l0,0v1.067
		l0,0c0,0,0-1.067,0-2.133h1.067c0-1.067,0-1.067,0-2.133c1.067,0,1.067,0,1.067-2.133l0,0l0,0l0,0c0-1.067,1.067-1.067,1.067-1.067
		s1.067,0,1.067,1.067c0,0,0,0,0,1.067c1.067,1.067,1.067,1.067,2.133,0c0,0,0,0,0-1.067l0,0c0,0,0,0,0-1.067c0,0,0,0,0-1.067
		v-1.067c0,0,0,0,1.067-1.067v-1.067c0,0,0,0-1.067,0c0-1.067,0-1.067,0-1.067h1.067c0,0,0,0,1.067,1.067v1.067c0,0,0,0,1.067,0
		h1.067v-1.067l0,0l0,0l0,0c0,0,0,0,1.067,0c0,0,0,1.067,1.067,1.067c0,0,0,0,1.067,0l1.067,1.067l0,0c0,0,0,0,1.067,0
		c0,0,0,0,1.067-1.067c0,0,0,0,1.067,0c0,0,0,0,0,1.067l0,0c0,0,0,0,1.067,1.067l0,0c0,1.067,0,1.067-1.067,2.133c0,0,0,0,0,1.067
		l0,0h1.067v1.067c-1.067,0-1.067,0-1.067-1.067c0,0,0,1.067-1.067,1.067c0,0,0,1.067,1.067,1.067h1.067l0,0v1.067l0,0
		c0,0,0,0,0,1.067h1.067l0,0l0,0c0,1.067,0,1.067-1.067,1.067l0,0c0,1.067,0,1.067,1.067,1.067l0,0c1.067,0,1.067,0,1.067-1.067
		s1.067-2.133,1.067-3.2c0-1.067,0-2.133,0-3.2v-1.067c0-1.067,0-1.067,0-2.133v-1.067c0-1.067,0-2.133,1.067-3.2h1.067v1.067v1.067
		l0,0c0,1.067,0,1.067,0,2.133c0,1.067,0,1.067,0,2.133c0,0,0,0,0,1.067l0,0c0,0,0,0,1.067,0c0,0,0,1.067,1.067,1.067
		c0,1.067,0,2.133,0,3.2c0,0,0,1.067,1.067,1.067c0,0,0,1.067,0,2.133l0,0c0,0,0,1.067,0,2.133l0,0c0,0,1.067,0,1.067,1.067
		c0,0,0,0,1.067,1.067l1.067,1.067c0,0,0,0,0,1.067c1.067,1.067,1.067,2.133,1.067,3.2c0,0,0,0,1.067,0c0,0,0,0,1.067,0v1.067v1.067
		l0,0l0,0c1.067,0,1.067,1.067,1.067,2.133l0,0c0,0,0,0,1.067,0c0,0,0,0,0-1.067c0,0,0,0,0,1.067c0,1.067,0,2.133,0,3.2
		c0,0,0,0,0,1.067v1.067l0,0c0,1.067,0,2.133,0,2.133c0,1.067,0,1.067,0,2.133c0,1.067,0,1.067,0,2.133v1.067v1.067
		c0,0-1.067,1.067-1.067,2.133c0,1.067-1.067,2.133-1.067,3.2c0,0,0,0,0,1.067c0,0-1.067,1.067-1.067,2.133c0,0,0,0,0,1.067v1.067
		v1.067H368h-1.067c0,0,0,0-1.067,0c-1.067,1.067-1.067,1.067-2.133,2.133l-1.066-1.067c-1.067,0-1.067,0-1.067,0
		s-1.067,1.067-1.067,0h-1.067H358.4l0,0c0,0,0,0-1.067,0c0,0,0,0-1.067,0c0,0,0,0-1.067-1.067v-1.067c0-1.067,0-1.067-1.067-2.133
		c0,0,0,0-1.067-1.067c-2.133,1.067-2.133,1.067-3.2,1.067c0,0,0,0,0-1.067h1.067l0,0l1.067-1.067c0,0,0,0,0-1.067v1.067h-1.067l0,0
		l0,0l0,0c0-1.067,0-2.133,0-2.133s0,0,0-1.067c0,1.067,0,1.067-1.067,1.067l-1.067,1.067c0,0,0,0,0,1.067
		c-1.067,0-1.067,0-1.067-1.067v-1.067c0,0,0-1.067-1.067-1.067l0,0l-1.067-1.067c0,0,0-1.067-1.067-1.067l0,0c0,0,0,0-1.067,0l0,0
		c0,0-1.067,0-1.067-1.067l0,0h-1.067h-1.067H339.2c-1.067,0-2.133,1.067-2.133,1.067H336c-1.067,0-1.067,1.067-2.133,1.067
		c0,0,0,1.067-1.067,2.133h-1.067l0,0c-1.067,0-2.133,0-2.133,0h-1.067c0,0,0,0-1.067,1.067l0,0H326.4c0,0-1.067,0-1.067,1.067l0,0
		c0,0-1.067-1.067-1.067,0c0,0-1.067,0-1.067-1.067c0,0,0,0-1.067-1.067c-1.067,0-1.067,0-1.067-2.133l0,0v-1.067
		c0-1.067,0-1.067,0-2.133c0,0,0,0,0-1.067v-1.067c0-1.067,0-1.067,0-2.133s0-1.067,0-2.133c0-1.067,0-1.067-1.067-2.133
		c0,0,0,0,0-1.067c0-1.067,0-1.067,0-1.067C322.133,275.248,322.133,274.181,322.133,273.115z"/>
	<path style="fill:#CED6E0;" d="M476.8,86.448c-1.067,0-1.067,1.067-2.133,1.067c0,1.067,0,2.133,0,3.2c0,1.067,0,1.067,0,2.133
		c-1.067,0-1.067,0-1.067,0c-1.067,0-1.067,1.067-2.133,1.067c-1.067,1.067-2.133,2.133-3.2,2.133c0,0-1.067,0-1.067,1.067h-1.067
		l0,0c0,0,0,0-1.067,0s-1.067,0-1.067,0c-1.067,0-1.067,0-2.133,1.067c0,0-1.067,1.067-1.067,0c0,0,0,0,0-1.067
		c0,0-1.067,0-1.067,1.067c0,0-1.067,0-1.067,1.067c0,0,0,0,0-1.067c0,0,0,0-1.067,0c0,0,0,0-1.067,0l0,0
		c0,1.067,0,1.067-1.067,2.133c-1.067,0-1.067,1.067-1.067,1.067c1.067,0,1.067,0,2.133,0c0,1.067-1.067,1.067-1.067,2.133
		c0,0,0,0,1.067,0v1.067c0,0,0,0-1.067,0l0,0c-1.067,0-1.067,1.067-1.067,1.067l0,0c0,0,0,0,0,1.067c0,1.067,0,1.067-1.067,1.067
		c0,0,0,0-1.067,0c0,0,0,0-1.067,0s-1.067,1.067-1.067,2.133l0,0h-1.067H448c0,1.067-1.067,2.133-1.067,3.2l-1.067,1.067
		c0,0-1.067-1.067-1.067-2.133v-1.067c0-1.067,0-1.067,0-2.133c0-1.067,0-2.133,0-3.2c0-1.067,0-1.067,0-2.133v-1.067
		c0,0,0-1.067,1.067-1.067c0,0,0,0,1.067,0s0,0,0-1.067l0,0H448c1.067,0,1.067-1.067,2.133-2.133c0-1.067,1.067-1.067,2.133-2.133
		l1.067-1.067c0-1.067,1.067-1.067,2.133-1.067c0,0,1.067,0,1.067-1.067c0-1.067,0-1.067,1.067-2.133c0,0-1.067,0-1.067,1.067
		c0,0,0,0,0,1.067v1.067l0,0h-1.067c-1.067,1.067-2.133,1.067-2.133,2.133c0,0,0,0,0-1.067l0,0v-1.067h-1.067H451.2l0,0h-1.067
		c0,0-1.067,0-1.067,1.067l0,0l0,0c-1.067,1.067-2.133,1.067-2.133,1.067l-1.067,1.067c0,0,0,0,1.067,0c0,0,0,0,0,1.067l0,0h-1.067
		c-1.067,0-1.067,0-2.133,0c-1.067,0-1.067,0-2.133,0l0,0c0,0,0,0,1.067-1.067c0-1.067-1.067,0-1.067,0
		c-1.067,0-1.067-1.067-2.133,0c0,0,0,0,0,1.067c-1.067,0-1.067,0-1.067,0s-1.067,1.067-1.067,0h-1.067c0,0-1.067,1.067-1.067,0
		c0,0,0,0-1.067,0h-1.067c-1.067,0-1.067,0-2.133,0c-1.067,0-1.067,0-2.133,1.067l0,0c-1.067,0-1.067,0-1.067,1.067l0,0
		l-1.067,1.067c-1.067,0-1.067,1.067-1.067,1.067l-1.067,1.067c-1.067,0-1.067,1.067-1.067,1.067l-1.067,1.067l0,0h1.067v1.067l0,0
		l0,0c0-1.067-1.067,0-1.067-1.067c0-1.067,1.067,0,1.067-1.067h1.067v1.067l0,0v1.067v1.067l1.067-1.067h1.067l1.067,1.067
		c0,0,1.067,1.067,1.067,0l0,0h1.067l0,0c0,0,0,0,0-1.067l0,0h1.067c0,1.067,0,2.133,1.067,2.133c0,1.067,0,1.067,0,2.133
		c0,0,0,0,0,1.067v1.067c0,1.067,1.067,3.2,1.067,4.267l0,0c0,0-1.067,0-1.067-1.067c0,0,0,0-1.067,0s-1.067,0-1.067,1.067v1.067
		v1.067l0,0c0,1.067,0,1.067,1.067,1.067v1.067c0,0,0,0,0-1.067c0,0,0,0-1.067,0c0,0-1.067,0-1.067,1.067c0,0,0,1.067-1.067,1.067
		v-1.067c0-1.067,0-1.067,0-2.133v-1.067l0,0v-1.067v-1.067v-1.067v-1.067c0,0,0,0,0-1.067c0,0,0-1.067-1.067-1.067H425.6l0,0v1.067
		c0,1.067,0,1.067,0,2.133c-1.067,1.067,0,2.133-1.067,2.133c0,1.067-1.067,1.067-2.133,2.133c0,1.067-1.067,1.067-1.067,2.133
		s-1.067,1.067-1.067,2.133l-1.067,1.067c-1.067,1.067-1.067,2.133-1.067,2.133c-1.067,1.067-2.133,2.133-3.2,2.133l0,0h-1.067
		c0,0,0,0,0-1.067c0,0,0,0-1.067,0l-1.067,1.067c0,0,0,0-1.067,0c0,0-1.067,0-1.067,1.067v1.067c0,0,0,1.067-1.067,1.067
		l-1.067,1.067c0,0,0,0-1.067,0l0,0v1.067c0,0,0,0,1.067,1.067c0,0,0,0,0,1.067l1.067,1.067c0,1.067,0,1.067,1.067,2.133v1.067
		c0,1.067,0,2.133-1.067,2.133c0,0,0,0-1.067,0H406.4l0,0c0,0-1.067,0-1.067,1.067c0,0,0,0-1.067,0c0-1.067,0-1.067,0-1.067v-1.067
		l0,0v-1.067c0-1.067,0-1.067,0-2.133v-1.067c-1.067,0-1.067,0-1.067,0c0-1.067,1.067-2.133,1.067-3.2l0,0l0,0
		c-1.067,0-1.067-1.067-2.133,0l-1.067,1.067l0,0c0,0-1.067,1.067-1.067,0v-1.067c0,0,0,0,0-1.067c0,0,0,0,0-1.067
		c0,0,0-1.067-1.067,0c0,0,0,0-1.067,1.067c0,0-1.067,0-1.067,1.067l0,0c0,1.067-1.067,1.067-1.067,1.067s1.067,0,1.067,1.067
		c0,1.067,1.067,1.067,1.067,2.133l1.067-1.067c0,0,0,0,1.067,0c0,0,1.067,1.067,1.067,0h1.067v1.067l0,0
		c-1.067,0-1.067,0-2.133,1.067l-1.067,1.067l-1.067,1.067c0,0,0,0,1.067,0s2.133,1.067,2.133,1.067v1.067c0,1.067,0,1.067,0,2.133
		l0,0c0,0,0,0,0,1.067c0,1.067,0,1.067,0,2.133s0,1.067,0,2.133c0,0,0,0,0,1.067s0,2.133-1.067,3.2v1.067c0,0,0,0,0,1.067l0,0
		l-1.067,1.067c0,0,0,0,0,1.067v1.067c0,0,0,1.067-1.067,1.067c0,0-1.067,0-1.067,1.067c0,0,0,0,0,1.067c0,0,0,0-1.067,1.067
		c-1.067,1.067,0,1.067-1.067,1.067l-1.067,1.067c0,0-1.067,1.067-2.133,1.067H390.4c0,0-1.067,0-1.067,1.067h-1.067l0,0l0,0
		c-1.067,0-2.133,0-2.133,1.067s0,1.067,0,2.133l0,0l0,0c0,1.067-1.067,1.067-1.067,2.133c0,0,0,1.067-1.067,1.067h-1.067
		c0,0,0,0-1.067,0v-1.067v-1.067c0,0,1.067-1.067,2.133-1.067c0-1.067,0-2.133-1.067-2.133h-1.067c-1.067,0-1.067,0-2.133,1.067l0,0
		c0,0-1.067,0-1.067,1.067l0,0l-1.067,1.067v2.133l0,0c0,0,0,0,0,1.067c0,0,0,0,0,1.067c1.067,1.067,1.067,2.133,2.133,2.133l0,0
		c0,1.067,0,1.067,1.067,1.067c0,1.067,0,1.067,0,2.133c0,0,0,0,0,1.067c0,1.067,0,1.067,0,2.133s0,2.133,0,2.133
		c0,1.067-1.067,1.067-1.067,2.133c0,1.067-1.067,1.067-2.134,1.067c0,0,0,0,0,1.067c0,1.067-1.067,1.067-1.067,1.067
		s-1.067,0-1.067,1.067c0,0,0,0-1.067,1.067c0,0,0,0,0-1.067v-1.067c0-1.067,0-1.067-1.067-2.133c0,0,0,0,0,1.067l-1.067-1.067l0,0
		c0,0,0,0,0-1.067v-1.067c0,0,0,0-1.067,0c0-1.067-1.067-1.067-2.133-1.067c0,0,0,0,0-1.067v-1.067c0,0,0,0-1.067,0
		c0,1.067,0,1.067,0,2.133c0,0,0,0,0,1.067c0,1.067-1.067,2.133-1.067,3.2l0,0c0,1.067,0,1.067,1.067,1.067c0,0,1.067,0,1.067,1.067
		c0,0,0,0,0,1.067c0,0,0,0,0,1.067c0,1.067,0,1.067,1.067,2.133h1.067l0,0c0,0,0,1.067,1.067,1.067l1.067,1.067c0,0,0,0,1.067,1.067
		c0,1.067,1.067,2.133,0,2.133l0,0v1.067c1.067,1.067,1.067,2.133,1.067,3.2l0,0c0,0,0,0,0,1.067H374.4c0,1.067,0,2.133,0,3.2
		c0,0,0,0,1.067,0c0,0,0,0,1.067,1.067l0,0c0,0,0,0,1.067,1.067l1.067-1.067c0,0,0,1.067,0,2.133c0,0,0,0,1.067,0v1.067h-1.067
		c0,1.067-1.067,2.133,0,3.2v1.067c0,1.067,0,1.067,0,2.133l0,0H377.6h-1.067c0,0,0-1.067-1.067-1.067
		c0-1.067-1.067-1.067-1.067-2.133l-1.067-1.067l0,0c-1.067-1.067-1.067-1.067-1.067-2.133l0,0c0-1.067,0-2.133-1.067-2.133
		c0,0,0,0,0-1.067c0,0,0-1.067-1.067-1.067c0,0,0,0-1.067-1.067c0,0,0-1.067,0-2.133L368,209.115c0,0,0,0-1.067,0c0,0,0,0,0-1.067
		v-1.067l0,0c0-1.067,0-1.067-1.067-1.067c0,0-1.067-1.067-1.067-2.133v-1.067c0-1.067,1.067,0,1.067,0
		c1.067,1.067,1.067,0,2.133,1.067c1.067,0,1.067,0,1.067,1.067c0,0,0,0,0,1.067c0,1.067,1.067,1.067,1.067,2.133l1.067,1.067
		c0,0,0,0,0,1.067l0,0l0,0l0,0l0,0c0,0,0,0,0,1.067l1.067,1.067l0,0l-1.067-1.067l-1.067-1.067l0,0c0-1.067-1.067-2.133-1.067-3.2
		c0,0,0,0,0-1.067c0,0,0-1.067,0-2.133v-1.067H368c0-1.067,0-2.133,0-2.133s0-1.067-1.067-1.067l0,0l0,0c0-1.067,0-1.067,0-2.133
		l0,0c0-1.067,0-1.067,0-2.133v-1.067v-1.067l0,0v-1.067c0-1.067,0-1.067,0-1.067v-1.067l0,0c0-1.067,0-2.133,0-3.2v-1.067l0,0
		c0,0,0,0-1.067,0s-1.067,0-2.133,0c-1.067,0-1.067,0-1.067-1.067v-1.067l0,0c0-1.067,0-2.133,0-2.133s0,0,0-1.067c0,0,0,0-1.067,0
		c0,0,0,0,0-1.067v-1.067c-1.067,0-1.067-1.067-2.133-2.133c0,0,0,0,0-1.067c0,0,0-1.067-1.067,0h-1.067c-1.067,0-1.067,0-1.067,0
		H355.2l0,0h-1.067h-1.067c0,0,0,0,0,1.067c0,0,0,0,0,1.067c0,1.067-1.067,1.067-1.067,1.067s0,2.133,0,3.2l-1.067,1.067l0,0l0,0
		c0,1.067-1.067,1.067-1.067,2.133v1.067l0,0l0,0c-1.067,0-1.067,0-1.067,1.067l0,0l0,0c0,1.067,0,1.067,0,2.133c0,0,0,0,0,1.067
		v2.133c0,1.067,0,2.133,0,3.2v1.067c0,1.067,0,1.067,0,2.133h-1.067c0,0,0,0,0,1.067c0,0,0,0,0,1.067l0,0l0,0c0,0,0,0-1.067,0
		c0,0,0,0,0,1.067l0,0c0,0-1.067,1.067-1.067,0c-1.067-1.067-1.067-1.067-1.067-3.2c0-1.067,0-1.067,0-2.133c0,0,0,0,0-1.067
		s0-1.067-1.067-2.133c0,0-1.067-1.067-1.067-2.133c0-1.067,0-2.133-1.067-3.2l0,0c-1.067-1.067-1.067-2.133-1.067-3.2
		c0,0,0-1.067,0-2.133c0-1.067,0-2.133,0-2.133c0-1.067,0-2.133-1.067-3.2c0-1.067,0-1.067,0-2.133l0,0h-1.067l-1.067-1.067l0,0
		L336,172.848c0,0,0,0,0-1.067v-1.067c0,0,0,0,0-1.067c0,0,0,0,0-1.067c0,0,0,0-1.067-1.067l-1.067-1.067v-1.067l0,0
		c0-1.067,0-1.067-1.067-1.067s-1.067,0-2.133,0c0,0,0,0-1.067,0h-1.067h-1.067c-1.067,0-1.067,0-2.133,0l0,0
		c-1.067,0-1.067,0-2.133,0s-2.133,0-3.2-1.067c0-1.067-1.067-1.067-1.067-2.133l0,0l0,0c0,1.067-1.067,1.067-2.133,1.067
		c0,0,0,0-1.067,0l0,0c0-1.067,0-1.067-1.067,0l0,0c0,0-1.067,0-1.067-1.067l-1.067-1.067h-1.067v-1.067
		c0-1.067,0-1.067-1.067-1.067c0,0,0,0,0-1.067c0,0,0-1.067-1.067-1.067h-1.067H307.2v1.067v1.067c0,1.067,0,1.067,1.067,2.133
		c0,0,0,0,1.067,1.067c0,0,0,0,1.067,1.067l0,0c1.067,0,1.067,1.067,1.067,1.067l0,0c0,0,0,0,1.067,0c0,0,0,0,0,1.067v2.133
		c0,0,0,1.067,1.067,1.067l0,0l0,0l0,0c0,0,0,0,1.067,0l0,0c1.067,0,1.067,0,2.133-1.067c0,0,0,0,0-1.067c0,0,0-1.067,1.067-1.067
		c0,0,0-1.067,1.067-1.067c0,0,0,0,1.067,0v1.067c0,1.067,0,1.067,0,2.133s1.067,1.067,1.067,1.067h1.067l0,0
		c0,1.067,1.067,1.067,1.067,2.133c0,1.067,0,2.133-1.067,2.133c0,0-1.067,1.067,0,1.067c0,0,0,0,0,1.067l0,0h-1.067v1.067v6.4l0,0
		c-1.067,0-1.067,0-1.067,1.067c0,1.067-1.067,0-1.067,1.067v1.067l0,0c0,0,0,0-1.067,0l0,0c0,1.067,0,1.067-1.067,1.067
		c0,0,0,0-1.067,0c-1.067,0-1.067,1.067-2.133,1.067l-1.067,1.067l0,0c-1.067,0-1.067,1.067-2.133,1.067
		c-1.067,0-1.067,0-2.133,1.067c0,0-1.067,0-1.067,1.067c0,1.067-1.067,1.067-1.067,1.067h-1.067L304,193.115
		c-1.067,0-1.067,0-1.067,1.067c-1.067,1.067-1.067,1.067-2.133,1.067l0,0l0,0c0,1.067,0,1.067,0,2.133v1.067
		c1.067,1.067,1.067,1.067,2.133,1.067c0,0,0,0,1.067,0c1.067,0,1.067,0,2.133,0l0,0c1.067,0,1.067,0,2.133,0s2.133,0,2.133-1.067
		c1.067-1.067,1.067-1.067,1.067,0c0,2.133,0,2.133,0,3.2c0,0,0,0-1.067,0l0,0c0,2.133,0,3.2-1.067,4.267l0,0
		c0,1.067,0,1.067-1.067,2.133v1.067c0,1.067,0,2.133-1.067,2.133l-1.067,1.067v1.067c0,0-1.067,1.067-1.067,2.133
		c-1.067,1.067-1.067,2.133-2.133,3.2c0,0,0,0-1.067,1.067s-2.133,2.133-2.133,3.2c0,0,0,1.067-1.067,1.067c0,0,0,1.067-1.067,1.067
		c0,1.067-1.067,2.133-1.067,2.133s0,0-1.067,1.067v1.067v1.067c0,0,0,1.067-1.067,1.067c0,1.067,0,1.067-1.067,2.133
		c0,1.067,0,1.067,0,2.133l0,0c0,1.067,0,1.067,0,2.133l0,0v1.067c0,0,0,0,0,1.067s0,1.067,0,2.133c0,0,0,1.067,1.067,1.067
		c1.067,0,1.067,1.067,1.067,2.133c0,1.067,0,1.067,0,2.133c0,1.067,0,2.133,0,2.133c0,1.067,0,1.067,0,2.133c0,0,0,0,0,1.067
		s0,2.133-1.067,2.133l0,0c0,1.067-1.067,1.067-1.067,2.133l0,0c-1.067,0-1.067,1.067-2.133,1.067c0,0,0,0,0,1.067
		s-1.067,1.067-1.067,2.133c-1.067,0-1.067,1.067-1.067,2.133c0,0,0,0,0,1.067c0,0,0,0,0,1.067v1.066l0,0c0,1.067,0,1.067,0,2.133
		v1.067c0,0,0,0,0,1.067v1.067L288,273.115c-1.067,0-1.067,1.067-2.133,1.067c0,0,0,0,0,1.067s0,1.067,0,1.067
		c0,1.067,0,2.133,0,3.2c0,1.067,0,1.067-1.067,2.133c-1.067,0-1.067,1.067-1.067,2.133c0,1.067-1.067,2.133-1.067,2.133
		s0,0,0,1.067c0,0,0,0-1.067,1.067c0,1.067-1.067,2.133-2.133,2.133l-1.067,1.067h-1.067c0,0,0,0-1.067,0c0,0,0,0-1.067,0
		c0,0,0,0-1.067,0h-1.067H272h-1.067c0,0,0,0-1.067,0H268.8c0,0,0,1.067-1.067,1.067s-1.067,0-1.067-1.067H265.6
		c0-1.067,0-1.067,0-2.133c0,0,0,0,0-1.067l0,0c0-1.067,0-1.067,0-2.133c0,0,0,0,0-1.067c0-1.067-1.067-2.133-1.067-3.2
		c0-1.067-1.067-2.133-1.067-3.2c0,0,0,0,0-1.067c-1.067-2.133-1.067-3.2-1.067-5.333v-1.067c0-1.067,0-2.133,0-3.2s0-1.067,0-2.133
		s0-1.067-1.067-2.133c0,0,0,0,0-1.067s-1.067-2.133-1.067-3.2c0,0,0,0,0-1.067c-1.067-1.067-1.067-2.133-1.067-3.2l0,0
		c0-1.067,0-1.067,0-2.133c0,0,0,0,0-1.067c0-1.067,1.067-2.133,0-3.2v-1.067c0,0,0,0,0-1.067s0-1.067,1.067-1.067
		c0,0,1.067-1.067,1.067-2.133s0-1.067,0-2.133c0,0,0,0,0-1.067v-1.067l0,0c0,0,1.067,0,1.067-1.067v-1.067l0,0
		c0-1.067-1.067-2.133-1.067-3.2c0,0,0-1.067,0-2.133l0,0c0,0,0-1.067-1.067-2.133c0,0,0,0,0-1.067c0-1.067-1.067-1.067-1.067-2.133
		c-1.067-1.067-1.067-3.2-2.133-4.267l0,0l0,0c0,0,1.067-1.067,0-1.067c0-1.067,0-1.067,0-2.133v-1.067c0,0,0,0,0-1.067v-1.067
		v-1.067L256,213.381h-1.067c0,0,0,0,0-1.067l0,0l0,0h-1.067c-1.067,0-1.067,0-1.067-1.067c0-1.067,0-1.067-1.067-2.133
		c0-1.067-1.067-1.067-1.067-1.067c-1.067,0-1.067,0-2.133,0l0,0c0,0-1.067,1.067-1.067,0l0,0c0,1.067-1.067,1.067-1.067,1.067
		c-1.067,0-2.133,1.067-3.2,1.067c0,0,0,0-1.067,0h-1.067c-1.067,0-1.067,0-2.133,0c-1.067,0-2.133,0-2.133,1.067
		c0,0-1.067,0-1.067,1.067h-1.067H233.6c0,0,0-1.067-1.067-1.067c-1.067,0-1.067-1.067-1.067-2.133s-1.067-1.067-2.133-2.133l0,0
		c0-1.067-1.067-1.067-2.133-2.133c0-1.067,0-1.067,0-2.133l0,0c0-1.067,0-2.133-1.067-3.2c0,0,0,0,0-1.067l-1.067-1.067
		c0-1.067-1.067,0-1.067,0l0,0c0,0,0,0,0-1.067v-1.067c0,0,0,0,0-1.067c0-1.067,0-1.067,0-2.133s0-1.067,0-2.133
		c0,0,0,0-1.067-1.067l0,0c1.067-1.067,1.067-2.133,1.067-3.2v-1.067c0-1.067,0-2.133,0-3.2v-1.067c-1.067-1.067,0-1.067,0-2.133
		l0,0c0,0,0-1.067-1.067-1.067c0-1.067,0-1.067,0-2.133c0,0,0-1.067,1.067-1.067l0,0c0-1.067,1.067-2.133,1.067-3.2l1.067-1.067
		c0,0,0-1.067,1.067-1.067c0-1.067,0-1.067,1.067-2.133c0,0,0,0,1.067-1.067c0,0,0,0,0-1.067c0,0,0-1.067,1.067-1.067
		c0,0,0-1.067,1.067-1.067h1.067c0,0,0-1.067,1.067-1.067c0,0,1.067,0,1.067-1.067c0,0,1.067-1.067,1.067-2.133v-1.067
		c0-1.067,0-2.133,0-2.133s1.067-1.067,0-2.133l1.067-1.067c0,0,1.067,0,1.067-1.067l1.067-1.067l0,0c0,0,0,0,0-1.067
		c0-1.067,1.067-1.067,1.067-2.133c0,0,0-1.067-1.067-1.067c0-1.067-1.067-1.067-1.067,0c-1.067,0-1.067,0-2.133,0
		c0-1.067,0-1.067,0-2.133v-1.067l0,0c0,0,0,0,0-1.067c0,0,0,0,0-1.067l0,0l0,0v-1.067c0-1.067,0-1.067,0-2.133v-1.067
		c0-1.067,0-1.067,0-2.133v-1.067c0,0,1.067,0,1.067-1.067h1.067c1.067,0,1.067,0,2.133,0h1.067l0,0c1.067,0,1.067,0,1.067,0h1.067
		h1.067c1.067,0,1.067,0,1.067-1.067v-1.067v-1.067c0-1.067,0-2.133,0-2.133c0-1.067-1.067-1.067-1.067-2.133
		c0-1.067-1.067-1.067-1.067,0c0,0,0,0,0-1.067h-1.067c0,0,0-1.067-1.067-1.067v-1.067h1.067c0,0,0,0,1.067,0
		c1.067,0,1.067,0,2.133,0c0,0,0,0,0-1.067v-1.067h1.067c0,0,0,0,1.067,0c0-1.067,1.067-1.067,1.067-1.067l0,0c0,0,1.067,0,0-1.067
		c0-1.067,0-1.067,1.067-1.067h1.067c1.067,0,2.133-1.067,2.133-2.133c0,0,0-1.067,1.067-1.067c0-1.067,1.067-1.067,1.067-1.067H256
		h1.067h1.067l0,0c0-1.067,0-1.067,0-2.133l0,0l0,0v-1.067c0-1.067,0-1.067,0-1.067h1.067c1.067,0,1.067,0,1.067-1.067
		c0,0,0,0,1.067,0v1.067v1.067c0,0,0,0,1.067,0c0,0,0,0,0,1.067c0,1.067,0,1.067,0,2.133v-1.067c0,0,0,0,1.067,0h1.067v-1.067
		c0,0,0-1.067-1.067-1.067c-1.067-1.067-1.067-2.133-1.067-3.2c0-1.067,0-1.067-1.067-1.067c-1.067,0-1.067,0-2.133,1.067
		c-1.067,1.067-1.067,1.067-2.133,1.067c0,0,0,0-1.067,0c0,0-1.067,0-1.067-1.067c0,0,0,0,0-1.067s-1.067-1.067-1.067-2.133v-1.067
		c-1.067-1.067,0-2.133,0-4.267l0,0c0,0,1.067,0,1.067-1.067H256c0,0,1.067,0,1.067-1.067l0,0c0,0,1.067-1.067,1.067,0h1.067
		c0,0,0-1.067,1.067-1.067l0,0c0,0,0,0,0-1.067c1.067,0,1.067,0,1.067,0s0,0,0-1.067c0,0,1.067-1.067,1.067-2.133l0,0
		c0,0,0,0,1.067,0c0,0,0-1.067,1.067-1.067l0,0c0,0,1.067,0,1.067-1.067c0,0,0,0,0-1.067h-1.067l0,0h-1.067v-1.067
		c1.067,0,1.067-1.067,2.133-1.067l0,0l1.067-1.067c0,0,0,0,1.067,0l0,0h1.067c0-1.067,1.067-1.067,1.067-1.067s1.067,0,1.067-1.067
		s1.067,0,1.067,0c1.067,0,1.067,0,2.133,0l0,0h1.067c0,0,0,0,0-1.067c1.067,0,1.067-1.067,2.133,0c0,0,0,0,0-1.067c0,0,0,0,1.067,0
		h1.067l0,0h1.067l0,0l0,0l0,0c0-1.067,1.067-1.067,1.067-1.067c1.067,0,1.067,0,2.133,0c0,0,1.067,0,2.133,0
		c0,0,1.067,0,1.067,1.067s-1.067,0-1.067,1.067c1.067,1.067,1.067,1.067,2.133,0h1.067c0,0,1.067,0,1.067,1.067c0,0,0,0,1.067,0
		s2.133,0,2.133,0h1.067h1.067l0,0c1.067,1.067,1.067,1.067,3.2,1.067c0,0,1.067,0,1.067,1.067l0,0l0,0c0,0,0,0,0,1.067
		c0,0,0,0-1.067,1.067s-2.133,1.067-3.2,1.067s-2.133,0-3.2,0c-1.067,0-1.067,0-2.133,0l0,0c0-1.067-1.067,0-1.067,0l0,0
		c0,1.067,1.067,1.067,2.133,2.133c0,0,0,0,0,1.067l0,0l1.067,1.067l0,0h1.067c0,0,0,0,1.067,0c0,0,0,0,1.067,1.067l0,0l0,0
		c-1.067,0-1.067-1.067-2.133-1.067c-6.4-3.2-5.333-4.267-5.333-3.2c0,0,1.067,1.067,2.133,1.067h1.067h1.067v-1.067
		c0,0,0-1.067,1.067-1.067c1.067,0,1.067,0,2.133-1.067l1.067-1.067c0,0,0,0,1.067,0h1.067c0,0,1.067,0,1.067-1.067l0,0h-1.067
		c1.067,0,1.067,0,1.067-2.133c0,0-1.067,0-1.067-1.067l0,0c1.067,0,1.067,0,2.133,0h1.067c0,0,1.067,0,1.067,1.067
		c-1.067,0-1.067,0-2.133,1.067l0,0c0,0,0,1.067,1.067,1.067c1.067,0,1.067,0,2.133,0c0,0,0-1.067,1.067-1.067c0,0,0,0,1.067,0
		h1.067c1.067,0,2.133-1.067,2.133-1.067h1.067c1.067,0,1.067,0,2.133-1.067h1.067c1.067,0,1.067,0,2.133,0h1.067h1.067h1.067
		c0,0,0,0,1.067,0s1.067,0,1.067,0l0,0c0,0,0,0,0-1.067c1.067,0,1.067,0,2.133,1.067c0,0,0,0,1.067,0c0,0,0,0,1.067,0
		c0,0,0-1.067-1.067-1.067c0,0,0,0-1.067,0s-1.067,0-2.133-1.067l0,0c0,0,0,0,0-1.067h1.067l1.067,1.067l0,0
		c1.067,0,1.067,0,2.133,0c1.067,0,2.133,0,2.133,0h1.067c1.067,0,2.133,0,2.133,1.067c0,0,1.067,0,1.067,1.067h1.067l0,0
		c0-1.067-1.067-1.067-1.067-1.067h-1.067c0-1.067,0-1.067,0-2.133c0,0,0,0-1.067-1.067l0,0c0-1.067,1.067-1.067,1.067-1.067
		s1.067,0,1.067-1.067c0,0,0,0,1.067-1.067c0,0,0-1.067,1.067-1.067c0,0,0,0,1.067,0l0,0c1.067-1.067,2.133-1.067,3.2,0
		c0,0,0,0,1.067,1.067l0,0c0,0,0,0,1.067,0c0,0,0,0,1.067,0s1.067,0,2.133,0c0,0,0,0,1.067,0s1.067,0,2.133,0
		c1.067,0,1.067,0,2.133,0c1.067,0,1.067,0,1.067-1.067l0,0l0,0l0,0l0,0c0,1.067,0,1.067,1.067,2.133v1.067H352v-1.067
		c0-1.067,0-1.067-1.067-1.067c0-1.067,1.067-1.067,1.067-1.067s0,0,1.067,0c0,0,0,0,1.067,0l0,0c1.067,0,1.067,0,2.133,0
		c1.067,0,1.067,0,2.133,0h-1.067h1.067l0,0h1.067c0-1.067,0,0-1.067-1.067h-1.067v-1.067l0,0c0,0,0,0,1.067,0
		c0,0,1.067,0,1.067-1.067l0,0v-1.067h1.067l0,0l0,0h1.067c0,0,0-1.067,1.067-1.067v-1.067l0,0l0,0l0,0c1.067,0,1.067,0,2.133,0
		h1.067c0,0,1.067,0,1.067-1.067l0,0c1.067,0,2.133,0,3.2,0l0,0l0,0l0,0c0,0,0,0-1.067,0H368h-1.067l0,0l0,0H368c0,0,0,0,0,1.067
		c0,0,1.067,0,1.067-1.067h1.067h1.067c1.067,0,1.067,0,1.067,0l0,0c0,0,0,0,1.067,0s2.133,0,3.2,0s2.133,0,3.2-1.067
		c0,0,1.067,0,1.067-1.067c0,0,0,0,1.067,0h1.067l0,0H384c1.067,0,2.133,0,2.133,0h1.067l0,0c0,0,0,0-1.067,0c0,0,0,0,0,1.067h1.067
		l0,0l0,0l0,0c0,0,1.067,1.067,1.067,0h1.067c1.067,0,2.133,0,3.2,0c0,0,0,0,1.067,0l0,0h1.067l0,0c0,1.067,0,1.067,1.067,1.067
		v1.067c0,0,0,0-1.067,0c0,0,0,0-1.067,1.067c0,0,1.067,1.067,1.067,2.133h1.067c1.067,0,1.067,0,2.133,0c0,0,0,0,1.067,0H400h1.067
		h2.133c0,0,0,0,1.067,1.067h1.067h1.067h1.067h1.067v-1.067l0,0h1.067h1.067c1.067,0,1.067,0,2.133,0c1.067,0,2.133,0,2.133,0l0,0
		l0,0H416c0,0,0,0,0,1.067c0,0,0-1.067,1.067,0c0,0,0,0,0,1.067h1.067c0,0,0,1.067,1.067,1.067l-1.067,1.067
		c0,1.067,0,1.067,0,1.067h-1.067c0,1.067,0,1.067,2.133,1.067c0,0,1.067-1.067,1.067-2.133c0,0,0,0,1.067-1.067
		c1.067,0,1.067,0,2.133,0c0,0,0,0,1.067,0s1.067,0,2.133,0l0,0c0,0,0,0,1.067,0s1.067,0,2.133,0h1.067l0,0H432l0,0h1.067h1.067
		c0,0,0,0,1.067,0c-1.067,0-2.133-1.067-2.133,0c0,0,0,0-1.067,0v-1.067c0,0,0-1.067,1.067-1.067l0,0c1.067,0,1.067,0,1.067,0h1.067
		c0,0,0,0,1.067,0c0,0,0,0,1.067,0h1.067c0-1.067,0-1.067,0-1.067h1.067h1.067c0,0,1.067,0,1.067-1.067c0,0,0,0-1.067,0
		s-1.067,0-2.133,0h-1.066l0,0c0,0,0,0-1.067,0s-2.133,0-3.2,0l0,0H432h-1.067l0,0c0,0,0,0-1.067,0l0,0H428.8c0,0,0,0-1.067,0
		c0,0,0,0,0-1.067h-1.067c0,0-1.067,0,0-1.067v-1.067c0,0,0,0,1.067-1.067c0,0,0-1.067,1.067,0c0,0,0,0,0-1.067h1.067l0,0l0,0H428.8
		h-1.067h1.067l0,0h-1.067c-1.067,0-1.067,0-2.133,0c0,0-1.067,0-2.133,0c0,0,0,0,0-1.067c0,0,0,0,1.067,0
		c0-1.067,1.067-1.067,2.133-1.067c0,0,1.067,0,2.133,0c1.067,0,1.067,0,2.133,0v1.067l0,0l0,0c0,0,0,0,1.067,0v1.067l0,0
		c0,0,0,0,1.067,0c0,0,0,0,1.067,0h-7.467c0,0,0,0,0,1.067h1.067h1.067l0,0h1.067h1.067l0,0c0,0,0,0,1.067,0c0,0,0-1.067,1.067,0
		c0,0,0,0,1.067,0h2.133c0,0,1.067,0,1.067,1.067l0,0l0,0l0,0h1.067c1.067,0,1.067,0,2.133,0h1.067h1.067c0,0,0,0,1.067,0v-1.067
		c1.067,0,0,1.067,1.067,1.067c0,0,0,0,1.067,0s0,1.067,1.067,0c0,0,0,0,0-1.067H448l0,0c0,0,0,0,1.067,0c0,0,1.067,0,1.067,1.067
		c0,0,0,0,1.067,0s0,0,1.067,0c0,0-1.067,0-1.067,1.067c0,0,0-1.067-1.067-1.067h-1.067c0,0,0,0,0-1.067c0,0,0,0-1.067,0
		c0,0,0,0-1.067,0l0,0c0,0,0,0,0,1.067v1.067c-1.067,0-2.133,0-3.2,0l0,0h-1.067l0,0l0,0c-1.067,0-1.067,0-2.133,0l0,0
		c0,0,0,0,1.067-1.067l0,0l0,0c0,0,0,0-1.067,0l0,0h-1.067l0,0l0,0l0,0c-1.067,0-1.067,1.067-1.067,1.067l0,0c0,0,0,0,1.067-1.067
		l0,0l0,0l0,0c0,0,1.067,0,1.067,1.067c0,0,1.067,1.067,1.067,0c0,0,0,0,1.067,0l0,0c0,0,0,0,1.067,0c0,0,0,0,1.067,0l0,0
		c1.067,1.067,1.067,1.067,2.133,1.067l0,0c0,0,0,0,1.067,0s0,0,1.067,0h1.067c0,0,1.067,0,1.067-1.067c1.067,0,1.067,0,1.067,0
		h1.067l0,0c1.067,0,1.067,0,1.067,0l0,0c1.067,0,1.067,0,2.133,0l0,0c1.067,0,2.133,0,3.2,1.067l0,0
		c0,1.067,1.067,1.067,1.067,1.067c-1.067,0-1.067,0-2.133,1.067c1.067,0,1.067,0,2.133,0h1.067h1.067c1.067,0,1.067,0,2.133,0
		c1.067,0,1.067,0,2.133,0c1.067-1.067,1.067-1.067,2.133,0l0,0l0,0l0,0h-1.067l0,0h1.067h1.067c0,1.067,1.067,0,1.067,0l0,0
		c0,0,0-1.067-1.067-1.067l0,0c0-1.067,0,0,0,0s0,0,0-1.067l0,0c1.067,0,1.067,0,2.133,0c0,0,0,0,1.067,0h1.067l0,0
		c1.067,0,1.067,0,2.133,0c1.067,0,1.067,0,2.133,0H480h1.067v1.067c0,1.067-1.067,1.067-1.067,2.133s0,2.133,0,2.133
		s1.067,0,1.067,1.067C477.867,84.315,476.8,85.381,476.8,86.448z"/>
</g>
<g>
	<path style="fill:#ADB3BA;" d="M99.2,309.381l-11.733-85.333l52.267,21.333L99.2,309.381z M90.667,229.381l10.667,70.4
		l33.067-53.333L90.667,229.381z"/>
	<path style="fill:#ADB3BA;" d="M231.467,257.115l-97.067-9.6l48-60.8L231.467,257.115z M139.733,245.381L224,252.848l-42.667-60.8
		L139.733,245.381z"/>
	<path style="fill:#ADB3BA;" d="M394.667,328.581l-168.533-72.533l34.133-90.667L394.667,328.581z M230.4,253.915L384,320.048
		L261.333,171.781L230.4,253.915z"/>
	<path style="fill:#ADB3BA;" d="M179.2,190.981l11.733-74.667l73.6-61.867L262.4,168.581L179.2,190.981z M194.133,118.448
		l-10.667,68.267l75.733-19.2l2.133-104.533L194.133,118.448z"/>
	<path style="fill:#ADB3BA;" d="M260.267,170.715l-72.533-54.4l151.467-2.133L260.267,170.715z M197.333,119.515l62.933,46.933
		l68.267-49.067L197.333,119.515z"/>
	<path style="fill:#ADB3BA;" d="M333.867,117.381l-76.8-60.8L435.2,89.648L333.867,117.381z M268.8,61.915l66.133,52.267
		l86.4-24.533L268.8,61.915z"/>
	<path style="fill:#ADB3BA;" d="M438.4,183.515L400,142.981l28.8-59.733L438.4,183.515z M403.2,142.981l30.933,32l-7.467-80
		L403.2,142.981z"/>
	<path style="fill:#ADB3BA;" d="M373.333,216.581l-42.667-103.467l72.533,29.867L373.333,216.581z M337.067,118.448l36.267,88.533
		l25.6-64L337.067,118.448z"/>
	<path style="fill:#ADB3BA;" d="M422.4,240.048l-52.267-28.8l68.267-38.4L422.4,240.048z M376.533,212.315l43.733,23.467
		l12.8-55.467L376.533,212.315z"/>
	<path style="fill:#ADB3BA;" d="M184.533,192.048L89.6,149.381l56.533-62.933L184.533,192.048z M93.867,148.315l84.267,38.4
		L144,92.848L93.867,148.315z"/>
	<polygon style="fill:#ADB3BA;" points="192,119.515 140.8,88.581 262.4,57.648 263.467,60.848 149.333,89.648 193.067,116.315 	"/>
</g>
<g>
	<circle style="fill:#4ABAA5;" cx="333.867" cy="116.315" r="8.533"/>
	<circle style="fill:#4ABAA5;" cx="427.733" cy="89.648" r="8.533"/>
	<circle style="fill:#4ABAA5;" cx="436.267" cy="179.248" r="8.533"/>
	<circle style="fill:#4ABAA5;" cx="401.067" cy="142.981" r="8.533"/>
	<circle style="fill:#4ABAA5;" cx="373.333" cy="212.315" r="8.533"/>
	<circle style="fill:#4ABAA5;" cx="421.333" cy="237.915" r="8.533"/>
	<circle style="fill:#4ABAA5;" cx="260.267" cy="168.581" r="8.533"/>
	<circle style="fill:#4ABAA5;" cx="193.067" cy="118.448" r="8.533"/>
	<circle style="fill:#4ABAA5;" cx="181.333" cy="188.848" r="8.533"/>
	<circle style="fill:#4ABAA5;" cx="262.4" cy="58.715" r="8.533"/>
	<circle style="fill:#4ABAA5;" cx="145.067" cy="89.648" r="8.533"/>
	<circle style="fill:#4ABAA5;" cx="91.733" cy="148.315" r="8.533"/>
	<circle style="fill:#4ABAA5;" cx="88.533" cy="227.248" r="8.533"/>
	<circle style="fill:#4ABAA5;" cx="136.533" cy="246.448" r="8.533"/>
	<circle style="fill:#4ABAA5;" cx="100.267" cy="305.115" r="8.533"/>
	<circle style="fill:#4ABAA5;" cx="389.333" cy="324.315" r="8.533"/>
	<circle style="fill:#4ABAA5;" cx="228.267" cy="254.981" r="8.533"/>
</g>
<path style="fill:#415A6B;" d="M510.933,348.848c-8.533,12.8-33.067,50.133-44.8,66.133c-2.133,2.133-5.333,3.2-7.467,1.067
	l-35.2-23.467c-2.133-2.133-3.2-5.333-1.067-7.467c12.8-16,36.267-51.2,44.8-64c2.133-2.133,4.267-3.2,7.467-1.067l35.2,21.333
	C512,342.448,513.067,346.715,510.933,348.848z"/>
<path style="fill:#8AD7F8;" d="M506.667,345.648c-6.4,9.6-26.667,40.533-39.467,58.667l0,0L432,380.848l0,0
	c12.8-17.067,30.933-44.8,39.467-56.533L506.667,345.648z"/>
<g>
	<path style="fill:#FFD15C;" d="M280.533,280.581v-3.2c0,0-10.667-10.667-12.8-19.2c-2.133-8.533-2.133-27.733,0-32
		c2.133-5.333,2.133-5.333,2.133-5.333l60.8,14.933c0,0-2.133,33.067,0,40.533C333.867,282.715,280.533,280.581,280.533,280.581z"/>
	<path style="fill:#FFD15C;" d="M219.733,280.581c-1.067,4.267,1.067,30.933,1.067,30.933l1.067,54.4l-19.2-18.133l-3.2-64v-1.067
		c0-2.133-10.667-12.8-10.667-14.933c0-2.133,2.133-4.267,2.133-4.267s-2.133-5.333,0-6.4c2.133-1.067,2.133-1.067,2.133-1.067
		s-1.067-6.4,4.267-6.4c0,0,3.2-1.067,3.2-3.2c0-2.133-1.067-10.667-2.133-13.867s-3.2-6.4-1.067-8.533
		c2.133-2.133,4.267,1.067,7.467,6.4c2.133,5.333,4.267,11.733,4.267,13.867c1.067,2.133,4.267,6.4,5.333,6.4
		s1.067-1.067,1.067-1.067s-2.133-5.333-2.133-6.4c0,0-3.2-9.6,4.267-10.667l2.133,5.333c0,0,1.067,3.2,1.067,5.333
		c0,0,3.2,8.533,2.133,14.933C224,263.515,220.8,276.315,219.733,280.581z"/>
</g>
<path style="fill:#F3F3F3;" d="M203.733,353.115c0,0-2.133-9.6-1.067-11.733s13.867-10.667,13.867-10.667
	S214.4,352.048,203.733,353.115z"/>
<path style="fill:#415A6B;" d="M230.4,301.915c0,0-12.8,5.333-14.933,12.8s-2.133,12.8-3.2,16c-1.067,3.2-1.067,2.133-2.133,6.4
	c-1.067,4.267-1.067,7.467-1.067,7.467s-5.333,4.267-5.333,6.4s1.067,11.733,3.2,17.067c2.133,5.333,1.067,9.6,7.467,10.667
	c5.333,1.067,17.067,1.067,20.267-1.067c2.133-2.133,6.4-9.6,6.4-9.6L230.4,301.915z"/>
<path style="fill:#344A5E;" d="M238.933,376.581c4.267,6.4,18.133,43.733,21.333,53.333c3.2,9.6-4.267,26.667-5.333,35.2
	s-1.067,26.667-3.2,34.133c-1.067,3.2-2.133,8.533-3.2,12.8h133.333c-3.2-20.267-9.6-39.467-9.6-39.467l13.867-153.6
	c0,0-7.467-6.4-18.133-9.6c-10.667-2.133-20.267-10.667-20.267-10.667l-7.467-6.4l-81.067,4.267c0,0-27.733,0-33.067,8.533
	c-5.333,8.533-4.267,27.733-3.2,39.467C224,357.381,234.667,370.181,238.933,376.581z"/>
<path style="fill:#FFD15C;" d="M490.667,389.381c-1.067,5.333-3.2,10.667-3.2,14.933s2.133,5.333,1.067,7.467
	c-1.067,2.133-21.333,16-24.533,20.267c-4.267,4.267-8.533,6.4-16,13.867s-53.333,44.8-53.333,44.8v-34.133
	c0,0,18.133-9.6,23.467-12.8c5.333-3.2,28.8-18.133,30.933-28.8c2.133-10.667,7.467-21.333,11.733-23.467
	c4.267-2.133,7.467-5.333,9.6-9.6c3.2-4.267,8.533-9.6,11.733-6.4c3.2,2.133,2.133,6.4-1.067,10.667
	c-3.2,4.267-8.533,10.667-9.6,12.8c-1.067,2.133,3.2,2.133,5.333,0c3.2-4.267,6.4-9.6,10.667-14.933
	C489.6,382.981,491.733,385.115,490.667,389.381z"/>
<path style="fill:#FFFFFF;" d="M388.267,457.648l7.467-3.2c0,0,11.733,12.8,7.467,23.467c-4.267,10.667-8.533,13.867-14.933,16
	c-6.4,2.133-6.4,2.133-6.4,2.133L388.267,457.648z"/>
<path style="fill:#F3F3F3;" d="M279.467,280.581c0,0-1.067-5.333,2.133-9.6c4.267-4.267,10.667-4.267,17.067-4.267
	c6.4,0,34.133,0,37.333,10.667c3.2,10.667-1.067,14.933-1.067,14.933l-55.467-6.4V280.581z"/>
<path style="fill:#415A6B;" d="M259.2,296.581c0,0,9.6-14.933,16-16c5.333-1.067,49.067,1.067,55.467,3.2
	c6.4,2.133,14.933,13.867,17.067,14.933c0,0-11.733,0-35.2,0C289.067,298.715,263.467,295.515,259.2,296.581z"/>
<g>
	<path style="fill:#F3705A;" d="M262.4,216.581c0,0-3.2,30.933,45.867,38.4c0,0,17.067,6.4,23.467-5.333
		c6.4-11.733,16-38.4-9.6-62.933C296.533,162.181,263.467,190.981,262.4,216.581z"/>
	<path style="fill:#F3705A;" d="M308.267,250.715c1.067,3.2,2.133,6.4,1.067,9.6s-2.133,6.4-3.2,9.6c-1.067,3.2-3.2,6.4-4.267,9.6
		c-5.333,9.6-12.8,17.067-18.133,25.6c-6.4,9.6-9.6,21.333-9.6,33.067c0,9.6,3.2,19.2,3.2,28.8c0,3.2,0,6.4,0,9.6
		c0,2.133,1.067,5.333,2.133,7.467c2.133,8.533,6.4,17.067,12.8,22.4c2.133,2.133,4.267,3.2,7.467,5.333
		c2.133,2.133,4.267,4.267,4.267,7.467c2.133-10.667,8.533-20.267,11.733-29.867c1.067-4.267,2.133-7.467,3.2-11.733
		c1.067-3.2,3.2-5.333,4.267-8.533c5.333-11.733,7.467-25.6,8.533-38.4c0-3.2,0-7.467,1.067-10.667
		c1.067-2.133,2.133-4.267,2.133-6.4c1.067-2.133,1.067-4.267,1.067-6.4c0-5.333,0-10.667-1.067-14.933c-3.2-12.8-12.8-22.4-16-35.2
		c-1.067-3.2-2.133-6.4-2.133-10.667"/>
</g>
<g>
	<path style="fill:#415A6B;" d="M318.933,262.448c-3.2-2.133-6.4-1.067-9.6,1.067c-2.133-2.133-3.2-5.333-2.133-7.467
		c4.267,1.067,8.533,2.133,11.733,2.133C321.067,258.181,321.067,260.315,318.933,262.448z"/>
	<path style="fill:#415A6B;" d="M360.533,352.048c8.533-23.467,12.8-34.133,22.4-34.133s16,26.667,12.8,43.733
		c-2.133,17.067-7.467,44.8-7.467,59.733c0,13.867-3.2,38.4-3.2,38.4l5.333-2.133c0,0,14.933,17.067,0,38.4
		c0,0-11.733,8.533-20.267,10.667c-8.533,2.133-11.733-2.133-14.933-8.533c-3.2-6.4-9.6-22.4-9.6-28.8
		C343.467,460.848,340.267,412.848,360.533,352.048z"/>
</g>
<circle style="fill:#344A5E;" cx="444.8" cy="398.981" r="3.2"/>
<g>
</g>
<g>
</g>
<g>
</g>
<g>
</g>
<g>
</g>
<g>
</g>
<g>
</g>
<g>
</g>
<g>
</g>
<g>
</g>
<g>
</g>
<g>
</g>
<g>
</g>
<g>
</g>
<g>
</g>
</svg>
